<?xml version="1.0" encoding="UTF-8" standalone="no"?>
<!-- Created with Inkscape (http://www.inkscape.org/) -->

<svg
   version="1.1"
   id="svg182"
   width="360"
   height="360"
   viewBox="0 0 360 360"
   sodipodi:docname="target-hit.svg"
   inkscape:version="1.2.2 (732a01da63, 2022-12-09)"
   xmlns:inkscape="http://www.inkscape.org/namespaces/inkscape"
   xmlns:sodipodi="http://sodipodi.sourceforge.net/DTD/sodipodi-0.dtd"
   xmlns="http://www.w3.org/2000/svg"
   xmlns:svg="http://www.w3.org/2000/svg">
  <defs
     id="defs186">
    <inkscape:path-effect
       effect="powerstroke"
       id="path-effect1980"
       is_visible="true"
       lpeversion="1"
       offset_points="3.222564,1.6936813"
       not_jump="true"
       sort_points="true"
       interpolator_type="CentripetalCatmullRom"
       interpolator_beta="0.75"
       start_linecap_type="round"
       linejoin_type="spiro"
       miter_limit="4"
       scale_width="1"
       end_linecap_type="round" />
    <inkscape:path-effect
       effect="simplify"
       id="path-effect1978"
       is_visible="true"
       lpeversion="1"
       steps="1"
       threshold="0.0047745358"
       smooth_angles="0"
       helper_size="0"
       simplify_individual_paths="false"
       simplify_just_coalesce="false"
       step="1" />
    <clipPath
       clipPathUnits="userSpaceOnUse"
       id="clipPath9606">
      <rect
         style="fill:#0080d9;stroke-width:1.00157"
         id="rect9608"
         width="360.56592"
         height="359.4368"
         x="-0.37637359"
         y="0.37637362" />
    </clipPath>
  </defs>
  <sodipodi:namedview
     id="namedview184"
     pagecolor="#ffffff"
     bordercolor="#000000"
     borderopacity="0.25"
     inkscape:showpageshadow="2"
     inkscape:pageopacity="0.0"
     inkscape:pagecheckerboard="0"
     inkscape:deskcolor="#d1d1d1"
     showgrid="false"
     inkscape:zoom="2.6569344"
     inkscape:cx="129.09615"
     inkscape:cy="191.1978"
     inkscape:window-width="2160"
     inkscape:window-height="1330"
     inkscape:window-x="-12"
     inkscape:window-y="-12"
     inkscape:window-maximized="1"
     inkscape:current-layer="g188" />
  <g
     inkscape:groupmode="layer"
     inkscape:label="Image"
     id="g188">
    <g
       id="g7664"
       clip-path="url(#clipPath9606)">
      <path
         id="path248"
         style="fill:#000000;stroke-width:0.571429"
         d="m 0,0 v 195.71484 195.71289 h 50.572266 50.570314 l 0.006,-8.71289 c 0.003,-4.7928 0.38559,-11.92885 0.85156,-15.85742 0.46597,-3.92852 0.85142,-9.97255 0.85742,-13.42969 0.0145,-8.73461 1.40386,-20.2286 3.14258,-26 1.91159,-6.34515 3.14258,-13.49485 3.14258,-18.25195 v -3.8164 l -5.85742,0.77148 c -3.22142,0.42406 -6.97755,1.13979 -8.34766,1.5918 -1.775972,0.5859 -2.804381,0.65538 -3.580078,0.24023 -1.435367,-0.76818 -7.540979,-13.01135 -9.619141,-19.28711 -3.310288,-9.99664 -3.722384,-14.22067 -3.646484,-37.34375 0.03782,-11.52396 0.258485,-21.25784 0.490234,-21.63281 0.231742,-0.37498 0.490822,-11.38993 0.576172,-24.47656 0.183434,-28.12509 0.81384,-33.83847 4.554688,-41.22071 2.146893,-4.23667 8.085654,-9.16637 19.103519,-15.85742 7.63557,-4.63701 14.07055,-7.69377 24.89843,-11.82812 13.3633,-5.10251 18.60622,-7.85429 21.9668,-11.53125 3.4572,-3.78273 4.2677,-6.34581 3.86328,-12.21289 -0.25494,-3.69871 -3.4914,-15.280485 -4.57226,-16.361332 -0.16646,-0.166463 -0.77465,-0.05652 -1.35157,0.246093 -2.18377,1.145481 -3.40868,-0.13544 -5.64843,-5.916015 -1.18076,-3.047356 -3.02325,-6.845779 -4.09571,-8.439454 -1.07247,-1.593676 -2.09401,-3.614558 -2.26953,-4.492187 -0.36221,-1.811007 1.06858,-4.466797 2.40625,-4.466797 1.10337,0 1.08226,-0.135262 -0.51172,-3.304687 C 136.75627,68.355484 135.48578,64.828557 134.67787,62 130.315,46.724912 130.044,37.830662 133.73256,30.910156 c 4.04858,-7.595885 13.91006,-16.94636 21.69531,-20.570312 10.27596,-4.7833505 17.96985,-4.4539474 26.28711,1.126953 1.72857,1.15987 3.65659,2.682063 4.28516,3.382812 0.62857,0.700755 2.42857,1.919693 4,2.708985 7.17637,3.604557 14.79588,10.564177 17.06055,15.583984 0.91003,2.017396 1.23493,4.295924 1.50781,10.572266 0.19134,4.399975 0.15116,8.900005 -0.0879,10 -0.23903,1.099995 -0.60881,4.126201 -0.82227,6.724609 -0.31275,3.80714 -0.22059,4.915205 0.47657,5.712891 0.6884,0.787721 0.8685,2.741592 0.88085,9.5625 l 0.0156,8.570312 -1.84375,2 c -1.49842,1.625338 -1.97142,2.78631 -2.52344,6.197266 -0.3736,2.308464 -1.23458,5.490836 -1.91406,7.070312 -1.09999,2.556986 -1.15928,3.153496 -0.54688,5.443356 1.86155,6.96011 6.01077,12.40592 13.125,17.22657 6.14321,4.16259 9.9684,5.61137 20.01172,7.58007 7.47934,1.46614 9.89857,2.18086 12.14454,3.58594 1.54249,0.96502 4.59686,2.87186 6.7871,4.23828 2.19028,1.36641 5.77728,3.21481 7.97071,4.10743 5.25054,2.1367 9.82089,5.10862 13.4414,8.74023 3.56353,3.57441 5.20809,6.83983 6.01368,11.94141 0.33384,2.11414 1.76075,8.01776 3.17187,13.11914 4.44814,16.08051 4.45808,16.18876 4.31445,45.89257 -0.13696,28.32586 -0.33202,31.44234 -2.61718,41.78125 -1.68408,7.61929 -3.6784,12.41425 -7.02735,16.89454 -1.24984,1.672 -3.09914,4.71105 -4.10937,6.7539 -1.01021,2.04286 -2.4942,4.41611 -3.29883,5.27344 -1.09791,1.16984 -1.52822,2.34476 -1.72461,4.71289 L 270.14453,300 h -8.5 -8.50195 l -0.004,6.71484 c -0.008,11.82964 -1.60682,22.04868 -5.85547,37.45704 -2.18687,7.93118 -2.39545,9.28065 -2.41015,15.54296 -0.0155,6.61549 0.0709,7.10488 2.42578,13.87891 1.34253,3.86184 2.81954,8.87585 3.2832,11.14258 0.46366,2.26673 0.97654,4.6991 1.14063,5.40625 l 0.29882,1.28515 H 306.01172 360 V 195.71484 0 H 180 Z m 234.77344,59.279297 c 1.45607,0.01699 2.90908,0.14445 4.36328,0.21875 1.30118,0.06453 2.6038,0.09975 3.90625,0.125 1.80377,0.0069 3.41103,0.689334 4.93555,1.589844 1.44709,0.900814 2.63475,2.149471 3.28125,3.746093 0.14954,0.36932 0.24731,0.756031 0.37109,1.134766 0.38679,1.507932 0.51964,3.064643 0.61914,4.613281 0.0686,1.211719 0.0809,2.425362 0.0918,3.638672 0.0107,1.611979 0.0117,3.223928 0.0137,4.835938 0.024,1.666718 -0.0787,3.329896 -0.43359,4.958984 -1.02186,2.973345 -2.99162,3.884128 -5.85743,4.4375 -1.59299,0.258053 -3.20625,0.320614 -4.8164,0.371094 -1.30773,0.036 -2.61768,0.04649 -3.92578,0.05469 -1.19548,0.06205 -2.36347,-0.175637 -3.52539,-0.417968 -1.36541,-0.340977 -2.63972,-0.93201 -3.89649,-1.550782 -1.45736,-0.721139 -2.77245,-1.658301 -3.94336,-2.779297 -1.33034,-1.338077 -2.00351,-3.03859 -2.43555,-4.83789 -0.32846,-1.600369 -0.4161,-3.237599 -0.4121,-4.867188 0.0153,-1.859985 0.36237,-3.69148 0.7207,-5.509765 0.35051,-1.58726 0.75017,-3.16567 1.19726,-4.728516 1.20106,-4.198436 4.09834,-5.37391 6.05078,-4.287109 0.93261,-0.474279 2.16041,-0.764006 3.69532,-0.746094 z m 104.11328,13 c 0.22464,-0.0044 0.45004,-0.0012 0.67578,0.0078 1.05132,0.04203 1.50682,0.1557 2.49414,0.335938 2.23953,0.523825 4.16676,1.730328 5.56445,3.566406 0.26996,0.354628 0.48824,0.744347 0.73243,1.117188 1.2131,2.47393 1.49366,5.210417 0.92382,7.898437 -0.0969,0.457099 -0.24842,0.899277 -0.37304,1.34961 -0.44317,1.5595 -1.38041,2.899373 -2.01368,4.375 -0.22698,0.552483 -0.28041,1.149418 -0.38085,1.732421 -0.27172,1.393676 -0.69638,2.734045 -1.25196,4.039063 -0.58934,1.570607 -1.43347,2.952497 -2.82226,3.94922 -0.3512,0.25205 -0.75612,0.41647 -1.13477,0.625 -1.86597,0.82154 -3.91663,0.9825 -5.92578,1.11719 -1.72996,0.10195 -3.46288,0.12368 -5.19531,0.14258 -2.0509,0.0554 -4.03665,-0.29727 -5.97266,-0.94727 -1.53205,-0.54711 -2.9911,-1.27 -4.41211,-2.056642 -1.66017,-0.948571 -3.10031,-2.170058 -4.31445,-3.638672 -0.80359,-1.169051 -1.49541,-2.532509 -1.57813,-3.957031 -2.40205,-1.080299 -2.28815,-4.810442 1.875,-7.90625 0.88198,-0.655852 1.66781,-1.431557 2.47852,-2.171875 2.21275,-1.944235 4.73359,-3.490183 7.25781,-4.990234 2.70997,-1.725472 5.67213,-2.896897 8.73828,-3.806641 1.51618,-0.405799 3.06229,-0.750181 4.63477,-0.78125 z m 0.82031,14.382812 c 6.9e-4,0.0035 9e-4,0.0043 0.002,0.0078 0.007,-0.0012 0.0143,-0.0026 0.0215,-0.0039 0.008,-0.0014 -0.0153,-9.07e-4 -0.0234,-0.0039 z m -221.23437,7.832032 c 0.77266,0.03775 1.52934,0.300127 2.3789,0.707031 1.17572,0.563117 2.33915,1.859657 3.26563,2.769531 1.72277,1.656969 3.50465,3.249217 5.29687,4.830077 0.92388,0.89227 2.0618,1.48175 3.10938,2.20313 1.80354,1.40196 2.63819,3.47168 2.48633,5.74023 -0.0278,0.41587 -0.10435,0.82669 -0.15625,1.24024 -0.37003,2.49941 -1.49903,4.7854 -2.5293,7.06445 -0.86133,2.00355 -1.93192,3.90475 -2.8418,5.88476 -0.67542,1.40047 -1.46209,2.86619 -2.80859,3.74024 -0.37577,0.24392 -0.80186,0.39845 -1.20313,0.59765 -1.52396,0.55926 -3.05688,0.29117 -4.59375,-0.002 -1.13663,-0.19729 -2.27149,-0.40417 -3.40234,-0.63281 -0.96013,-0.19502 -1.9345,-0.29164 -2.91016,-0.36524 -1.56837,-0.0896 -2.95373,-0.64298 -4.24804,-1.5039 -1.03496,-0.81832 -1.9164,-1.81332 -2.7461,-2.83399 -0.86322,-1.07087 -1.39097,-2.33554 -1.87109,-3.60937 -0.40907,-1.10768 -0.68563,-2.25222 -0.89649,-3.41211 -0.18953,-1.17663 -0.25072,-2.36741 -0.29882,-3.55664 -0.0391,-1.04921 -0.0619,-2.09786 -0.01,-3.14649 0.0749,-1.66328 0.63108,-3.20164 1.37891,-4.66992 0.61659,-1.32899 1.61616,-2.42388 2.34179,-3.68359 0.75539,-1.32562 1.77495,-2.47739 3.125,-3.218751 0.30779,-0.169018 0.63934,-0.292131 0.95899,-0.4375 0.5647,-0.217204 1.14685,-0.369668 1.73633,-0.486328 0.0933,-0.260696 0.19318,-0.52058 0.27929,-0.783203 0.56067,-0.598239 0.96173,-1.406163 1.6836,-1.794922 0.91432,-0.49241 1.70194,-0.678374 2.47461,-0.640625 z m 3.0957,4.746093 c -0.009,-0.0085 -0.0147,-0.007 -0.0137,0.0098 0.007,0.12199 0.0269,0.242113 0.0547,0.361328 0.0114,-0.06051 0.0267,-0.120619 0.0352,-0.18164 0.007,-0.04982 -0.0492,-0.163867 -0.0762,-0.189454 z m 176.26953,21.798826 c 0.88831,8.7e-4 1.77752,0.0936 2.60938,0.4336 0.36235,0.1481 0.69904,0.35162 1.04882,0.52734 1.80984,1.04324 2.81823,2.51331 3.69922,4.35352 0.79547,1.91887 0.98137,4.00326 1.14649,6.05273 0.11521,1.7336 0.18578,3.46982 0.14648,5.20703 -0.12226,1.80021 -0.5789,3.68197 -1.95508,4.96289 -0.37267,0.34688 -0.82738,0.59465 -1.24023,0.89258 -1.47184,0.77959 -3.09774,0.99491 -4.73242,1.11523 -1.53113,0.0844 -3.06462,0.0986 -4.59766,0.11329 -1.46083,0.0302 -2.92024,-0.091 -4.35547,-0.35352 -1.59074,-0.37859 -2.97953,-1.21492 -4.28906,-2.16211 -0.61002,-0.47184 -1.22727,-0.93265 -1.82031,-1.42578 -1.42126,-1.18179 -2.20519,-2.43053 -2.50782,-3.58203 -1.4686,-1.1998 -1.78011,-3.81592 0.4961,-6.83985 0.87092,-1.15697 1.8338,-2.24241 2.83984,-3.2832 1.11914,-1.25234 2.27766,-2.45609 3.57422,-3.52539 1.55216,-1.21774 3.40594,-1.78387 5.31445,-2.13281 1.23693,-0.1978 2.4862,-0.27678 3.73633,-0.33008 0.29393,-0.0147 0.59062,-0.0237 0.88672,-0.0234 z M 179.22656,132.5 c -1.83021,0.004 -3.66619,0.20646 -8.01367,0.61133 -11.92705,1.11073 -21.81197,3.76878 -32.33008,8.69336 -28.32804,13.26307 -49.068764,40.46397 -53.742185,70.48047 -2.293436,14.73025 -2.293436,17.84201 0,32.57226 3.303956,21.22067 15.434165,42.60554 32.101565,56.59375 15.97244,13.40505 33.39258,20.62174 55.04297,22.80274 3.77138,0.37993 7.49944,0.61162 8.28515,0.51562 0.78572,-0.096 4.2577,-0.45185 7.71485,-0.79101 12.38725,-1.21527 21.62882,-3.83683 33.14257,-9.40235 30.30109,-14.64679 50.35963,-44.03621 53.4336,-78.29101 0.75822,-8.44622 0.75702,-6.72298 0.01,-15.125 -2.07857,-23.3414 -11.01934,-42.95825 -27.05664,-59.3711 -16.43015,-16.8149 -37.15314,-26.63237 -60.60742,-28.71484 -4.32552,-0.38405 -6.15026,-0.57861 -7.98047,-0.57422 z m 0.15235,1.61719 c 5.74285,-0.006 11.47223,0.40392 16.11328,1.22851 40.66516,7.22519 71.79654,39.44587 77.65429,80.36914 1.05657,7.3814 0.44763,25.02881 -1.11328,32.25 -6.4528,29.85249 -26.3608,54.52311 -54.08593,67.02539 -9.56723,4.31425 -18.72222,6.71538 -29.66211,7.78321 -3.14286,0.30677 -7.64291,0.5336 -10,0.5039 -48.48575,-0.60997 -89.311139,-38.5695 -93.037113,-86.50586 -0.603895,-7.76893 -0.602755,-8.7818 0.02734,-16.48632 3.461917,-42.32995 35.646293,-77.40728 77.906253,-84.90821 4.69668,-0.83365 10.45438,-1.2542 16.19727,-1.25976 z m 0.13671,8.16797 c -0.82732,0 -1.09298,0.26393 -0.86523,0.85742 0.18091,0.47143 0.39938,0.85742 0.48438,0.85742 0.085,0 0.47398,-0.38599 0.86523,-0.85742 0.59375,-0.71543 0.51296,-0.85742 -0.48438,-0.85742 z m -16.23046,1.9082 c -0.39285,0.15852 -0.0709,0.28711 0.71484,0.28711 0.78569,0 1.10769,-0.12859 0.71484,-0.28711 -0.39286,-0.15852 -1.03682,-0.15852 -1.42968,0 z m 30.85742,0 c -0.39286,0.15852 -0.0709,0.28711 0.71484,0.28711 0.78569,0 1.10771,-0.12859 0.71485,-0.28711 -0.39286,-0.15852 -1.03684,-0.15852 -1.42969,0 z m -33.98828,0.55273 c -0.55598,0.14488 -0.23973,0.27346 0.70312,0.28516 0.94288,0.0117 1.39664,-0.10714 1.00977,-0.26367 -0.38688,-0.15656 -1.15691,-0.16633 -1.71289,-0.0215 z m 37.14258,0 c -0.55598,0.14488 -0.23974,0.27346 0.70312,0.28516 0.94287,0.0117 1.3986,-0.10714 1.01172,-0.26367 -0.38687,-0.15656 -1.15891,-0.16633 -1.71484,-0.0215 z m -17.17188,7.10938 c -15.62052,-0.13745 -31.40555,4.56506 -45.19922,14.31445 -9.61263,6.79426 -18.78733,17.55245 -24.2207,28.40235 -8.37735,16.72867 -10.26991,37.40218 -5.04883,55.14257 9.03666,30.70492 35.60537,52.58855 67.20117,55.35352 3.14286,0.27508 6.74286,0.41526 8,0.31055 1.25715,-0.10472 4.21322,-0.34952 6.57031,-0.54297 11.86271,-0.9736 24.32426,-5.51321 34.98829,-12.7461 39.14095,-26.54725 45.13477,-81.93656 12.57031,-116.15625 -14.96544,-15.72606 -34.77778,-23.9014 -54.86133,-24.07812 z m -0.69727,1.59961 c 10.33843,0.0111 11.59778,0.12832 17.42969,1.625 7.19661,1.84691 12.91275,4.10673 19.35938,7.65625 6.03339,3.32198 9.95256,6.28289 15.88867,12.00195 29.33846,28.26608 30.33606,76.20311 2.19336,105.46875 -11.08279,11.52502 -22.25145,18.06356 -37.36524,21.875 -4.8562,1.22468 -7.40578,1.49306 -15.79101,1.66211 -10.75363,0.2168 -14.57852,-0.246 -23.5293,-2.8457 -27.85907,-8.09158 -48.72539,-32.52431 -53.0332,-62.09766 -0.84419,-5.79536 -0.39701,-19.66399 0.81836,-25.37305 2.98538,-14.02364 9.39091,-26.24524 19.10351,-36.45703 10.72754,-11.27891 22.06118,-17.89976 37.49805,-21.90039 5.87884,-1.52359 7.00611,-1.62653 17.42773,-1.61523 z m -3.44335,8.24219 -3.69922,0.26757 3.42968,0.30274 c 1.88571,0.16683 5.09973,0.18847 7.14258,0.0469 l 3.71485,-0.25781 -3.44336,-0.31445 c -1.89391,-0.17253 -5.10993,-0.19241 -7.14453,-0.0449 z m -7.25977,0.76367 c -0.55598,0.14488 -0.23969,0.27345 0.70312,0.28515 0.94288,0.0116 1.39859,-0.10713 1.01172,-0.26367 -0.38688,-0.15655 -1.15886,-0.16628 -1.71484,-0.0215 z m 19.70312,0.0176 c -0.39286,0.15852 -0.0709,0.28906 0.71485,0.28906 0.78568,0 1.1077,-0.13054 0.71484,-0.28906 -0.39285,-0.15852 -1.03683,-0.15852 -1.42969,0 z m -28.47461,2.16406 c -0.19847,-0.008 -0.4246,0.0268 -0.63085,0.10937 -0.45585,0.18241 -0.32194,0.31831 0.34375,0.34571 0.60238,0.0248 0.93988,-0.11095 0.75,-0.30078 -0.0949,-0.0949 -0.26438,-0.14613 -0.4629,-0.1543 z m 39.42774,0 c -0.19851,-0.008 -0.42461,0.0268 -0.63086,0.10937 -0.45585,0.18241 -0.31999,0.31831 0.3457,0.34571 0.60238,0.0248 0.93988,-0.11095 0.75,-0.30078 -0.0949,-0.0949 -0.26633,-0.14613 -0.46484,-0.1543 z m 39.47656,2.21484 c -0.0295,0.0295 0.14266,0.26169 0.49805,0.71485 0.43134,0.55 0.88134,1 1,1 0.47031,0 0.16861,-0.47031 -0.7832,-1.2168 -0.45316,-0.3554 -0.68535,-0.52754 -0.71485,-0.49805 z m -59.89648,4.01758 c -14.08502,0.1156 -28.01047,5.44434 -38.91016,15.72656 -5.42698,5.11958 -9.26954,10.27766 -12.32422,16.54102 -11.05515,22.66775 -6.63269,48.72991 11.28125,66.47656 9.97218,9.87905 23.48929,15.92127 37.56446,16.79297 6.73113,0.41687 16.48991,-1.24872 23.71875,-4.04688 13.41821,-5.19397 25.75708,-16.86044 31.70507,-29.97851 2.29489,-5.06128 3.85988,-10.97133 4.76563,-17.99024 2.61574,-20.27009 -8.11081,-42.63835 -25.99414,-54.20703 -9.80023,-6.33972 -20.85164,-9.40436 -31.80664,-9.31445 z m 3.02734,1.3418 c 24.45333,0.98974 45.65483,18.04966 52.1543,42.63281 1.21905,4.61083 1.4375,6.69349 1.4375,13.72266 0,7.05201 -0.21685,9.10312 -1.45313,13.78125 -2.64765,10.01898 -6.86282,17.64774 -13.79101,24.95312 -8.12678,8.56922 -17.24742,13.80693 -28.6211,16.4375 -4.64989,1.07545 -15.69602,1.50697 -20.39257,0.79688 -34.40626,-5.20239 -56.11626,-39.70225 -45.80079,-72.78321 7.04371,-22.5885 27.62965,-38.37494 51.53711,-39.52148 1.65574,-0.0794 3.29946,-0.0855 4.92969,-0.0195 z m -2.58008,7.91992 c -0.60362,0.0241 -1.12945,0.53209 -0.8125,1.04492 0.18082,0.29256 0.55484,0.5332 0.83203,0.5332 0.80028,0 1.22105,-1.02886 0.58204,-1.42382 -0.19029,-0.11761 -0.40036,-0.16235 -0.60157,-0.1543 z m -9.74218,1.64844 c -0.19852,-0.008 -0.42461,0.0288 -0.63086,0.11132 -0.45584,0.18241 -0.31998,0.31635 0.3457,0.34375 0.60238,0.0248 0.93988,-0.10894 0.75,-0.29882 -0.0949,-0.0949 -0.26633,-0.14808 -0.46484,-0.15625 z m 20,0 c -0.19852,-0.008 -0.42461,0.0288 -0.63086,0.11132 -0.45584,0.18241 -0.31998,0.31635 0.3457,0.34375 0.60238,0.0248 0.93988,-0.10894 0.75,-0.29882 -0.0949,-0.0949 -0.26633,-0.14808 -0.46484,-0.15625 z m -23.52344,0.69336 c -0.39286,0.15852 -0.0709,0.28906 0.71484,0.28906 0.78569,0 1.10771,-0.13054 0.71485,-0.28906 -0.39286,-0.15852 -1.03684,-0.15852 -1.42969,0 z m 25.14258,0 c -0.39285,0.15852 -0.0709,0.28906 0.71484,0.28906 0.78569,0 1.10769,-0.13054 0.71484,-0.28906 -0.39286,-0.15852 -1.03682,-0.15852 -1.42968,0 z m 116.55664,0.57617 c 1.64705,-0.0551 3.28907,1.26218 3.79492,3.83984 0.33129,6.9e-4 0.66419,0.0187 1,0.0508 1.07931,0.0617 2.16205,0.1481 3.21875,0.38867 1.06482,0.2676 2.11201,0.60351 3.16211,0.92188 1.70836,0.64462 3.36054,1.45438 4.76367,2.64258 1.29811,1.20272 2.42847,2.54205 2.85547,4.30664 0.326,1.26217 0.49111,2.53934 0.54101,3.8418 0.0265,1.19329 -0.0446,2.38518 -0.17187,3.57226 -0.14238,1.2144 -0.3581,2.41589 -0.58398,3.61719 -0.40363,1.6693 -1.07477,3.20509 -2.26954,4.4707 -1.27181,1.25725 -2.71239,2.28877 -4.5039,2.64649 -1.21812,0.2232 -2.43343,0.26019 -3.66797,0.18359 -1.17625,-0.0423 -2.35573,-0.0956 -3.51953,-0.2832 -1.08337,-0.20742 -2.13201,-0.5168 -3.16602,-0.90039 -1.23684,-0.50072 -2.39854,-1.13561 -3.42578,-1.9961 -1.63815,-1.23371 -2.75454,-2.56011 -3.15234,-4.63086 -0.0689,-0.59099 -0.0776,-1.17639 -0.0625,-1.76172 -2.99894,0.0766 -4.84904,-3.47521 -1.64063,-7.6914 0.092,-0.12089 0.18535,-0.24045 0.27735,-0.36133 0.50115,-0.5756 0.80063,-1.30921 1.21093,-1.94727 0.37941,-0.74256 0.75706,-1.48904 1.1875,-2.20312 0.0758,-1.06543 0.14813,-2.13143 0.2168,-3.19727 h -0.002 c 0.23579,-3.66009 2.08783,-5.44789 3.9375,-5.50976 z M 198,184.58984 c -0.31429,0 -0.18626,0.24808 0.28516,0.55274 0.47143,0.30466 1.11539,0.55469 1.42968,0.55469 0.31428,0 0.18432,-0.25003 -0.28711,-0.55469 -0.47143,-0.30466 -1.11344,-0.55274 -1.42773,-0.55274 z m -18.85742,5.03321 c -0.725,0.003 -1.45,0.0626 -2,0.17773 -1.1,0.23017 -3.67199,0.70523 -5.71485,1.05664 -2.14267,0.36859 -5.99409,1.73983 -9.10351,3.24024 -4.45275,2.14856 -6.20039,3.41131 -10.05274,7.26367 -3.82731,3.82729 -5.1377,5.63476 -7.30859,10.08008 -2.71174,5.55277 -4.44865,12.21148 -4.46875,17.12695 -0.0133,3.25832 1.53282,10.7316 2.98047,14.4043 3.5779,9.07716 12.15639,17.71377 21.30859,21.45117 1.9265,0.7867 5.94597,1.88194 8.93164,2.43359 2.98571,0.55166 5.79225,0.89671 6.23828,0.76758 0.44611,-0.12915 2.74443,-0.50337 5.10743,-0.83203 15.15433,-2.10779 28.50926,-14.33133 31.76757,-29.07813 1.96094,-8.87469 1.96058,-9.16916 -0.0156,-18.28711 -2.28999,-10.56528 -10.21812,-20.46963 -20.2793,-25.33593 -3.43264,-1.6603 -6.84317,-2.84311 -9.39062,-3.25782 -2.2,-0.35814 -4.9,-0.83267 -6,-1.05273 -0.55,-0.11006 -1.275,-0.16152 -2,-0.1582 z m 0.0976,1.77734 c 3.47627,-0.0127 6.93802,0.26512 9.14844,0.83789 4.87581,1.26346 7.35318,2.37887 11.73438,5.28125 7.36368,4.87819 13.62288,13.71321 15.57031,21.97461 1.08503,4.60288 1.11003,13.45836 0.0488,17.93359 -3.01925,12.73413 -13.09461,23.33947 -25.74219,27.09571 -6.70471,1.99125 -15.46604,1.89964 -22.06445,-0.23047 -10.79285,-3.48415 -20.71068,-13.34614 -24.14453,-24.00781 -1.21414,-3.7697 -2.08422,-10.15047 -1.47266,-10.80078 0.26696,-0.28392 0.24241,-0.97032 -0.0547,-1.5254 -0.74283,-1.38792 0.65413,-9.03338 2.45899,-13.46093 4.32347,-10.6062 14.26827,-19.33908 25.27734,-22.19336 2.2726,-0.5892 5.76401,-0.89156 9.24023,-0.9043 z m 0.1875,8.02734 c -1.11377,0 -1.48865,0.60706 -0.80078,1.29493 0.45777,0.45778 1.94532,-0.1409 1.94532,-0.78321 0,-0.28066 -0.51597,-0.51172 -1.14454,-0.51172 z m 4.52539,0.64258 c -0.19847,-0.008 -0.4246,0.0288 -0.63085,0.11133 -0.45585,0.18241 -0.32194,0.3183 0.34375,0.3457 0.60238,0.0248 0.93988,-0.1109 0.75,-0.30078 -0.0949,-0.0949 -0.26438,-0.14807 -0.4629,-0.15625 z m -9.51367,0.10547 c -0.55599,0.14488 -0.23973,0.27346 0.70313,0.28516 0.94287,0.0117 1.3986,-0.10714 1.01172,-0.26367 -0.38687,-0.15656 -1.15887,-0.16633 -1.71485,-0.0215 z m 21.38477,4.97656 c -0.40892,0.005 -0.33924,0.22967 0.17578,0.5625 1.09778,0.70945 1.29588,0.70945 0.85742,0 -0.19424,-0.31429 -0.65889,-0.5675 -1.0332,-0.5625 z M 178.85547,209 c -4.62941,0.1336 -9.32397,1.94698 -13.1875,5.81055 -3.17066,3.17061 -5.65468,8.0171 -5.67578,11.06836 -0.005,0.69535 -0.24757,1.64067 -0.53907,2.10156 -0.29149,0.46089 -0.32375,1.10487 -0.0703,1.42969 0.2534,0.32483 0.63148,1.70575 0.83985,3.07031 1.10532,7.23819 7.91694,13.90795 15.80273,15.47265 11.54424,2.29069 22.94907,-7.35341 22.91797,-19.38085 -0.0311,-12.02755 -9.90324,-19.86619 -20.0879,-19.57227 z m 3.24805,10.69336 c 0.31386,0.0668 0.61837,0.21055 0.83984,0.41602 0.44295,0.41088 1.56866,1.17357 2.50195,1.69335 1.13934,0.63454 2.07251,1.89867 2.83985,3.84961 l 1.14257,2.90625 4.28711,0.11133 4.28516,0.11133 -4.55859,0.32422 -4.55664,0.32226 -0.89844,2.44141 c -1.13763,3.08839 -2.74381,4.69268 -5.83203,5.83008 l -2.43946,0.89844 -0.32617,4.27343 -0.32617,4.27149 -0.10156,-4.38477 -0.10352,-4.38281 -1.87304,-0.61914 c -2.96548,-0.97869 -6.0194,-3.8368 -6.76758,-6.33398 l -0.66992,-2.23438 -4.34571,-0.19336 -4.34375,-0.19336 4.42774,-0.11523 c 2.65226,-0.0689 4.42968,-0.35579 4.42968,-0.7168 0,-1.2058 2.22765,-5.45333 3.43164,-6.54297 0.84918,-0.7685 2.15809,-1.14664 4.1875,-1.21094 1.6236,-0.0514 3.36944,-0.26433 3.87891,-0.47265 0.25474,-0.10416 0.57676,-0.11572 0.89063,-0.0488 z m 0.18164,1.44922 c -0.31428,0 -0.57032,0.40064 -0.57032,0.89062 0,0.49 0.25604,0.73331 0.57032,0.53907 0.31429,-0.19424 0.57226,-0.59684 0.57226,-0.89258 0,-0.29573 -0.25797,-0.53711 -0.57226,-0.53711 z m -3.01368,0.69336 c -0.34519,-0.1516 -0.41406,0.0922 -0.41406,0.64453 0,0.42194 -0.8935,1.24937 -1.98633,1.83789 -2.52465,1.35964 -3.39287,3.6017 -2.26757,5.85742 0.89375,1.79166 2.34412,3.23515 3.68164,3.66211 1.73531,0.55396 5.48426,-1.73468 6.28515,-3.83789 0.57069,-1.49867 -0.71891,-4.0649 -3.23047,-6.42773 -1.10108,-1.03589 -1.72317,-1.58473 -2.06836,-1.73633 z m -47.43945,5.80468 c -0.16435,-0.0166 -0.34273,0.0693 -0.5332,0.25977 -0.31429,0.31428 -0.38434,0.87313 -0.15625,1.24219 0.27647,0.44736 0.60538,0.4806 0.98633,0.0996 0.31429,-0.31429 0.38434,-0.87313 0.15625,-1.24219 -0.13823,-0.22368 -0.28877,-0.34278 -0.45313,-0.35938 z m 114.28516,0 c -0.16436,-0.0166 -0.34077,0.0693 -0.53125,0.25977 -0.31428,0.31428 -0.38629,0.87313 -0.15821,1.24219 0.27647,0.44736 0.60537,0.4806 0.98633,0.0996 0.31428,-0.31429 0.38629,-0.87313 0.15821,-1.24219 -0.13824,-0.22368 -0.29073,-0.34278 -0.45508,-0.35938 z m -38.25391,0.0508 c -0.17047,-0.0157 -0.31768,0.11728 -0.49023,0.39648 -0.2427,0.39272 -0.3203,0.90949 -0.17383,1.14649 0.14647,0.23694 0.64975,0.28168 1.11914,0.10156 0.67136,-0.25762 0.70948,-0.50146 0.17578,-1.14453 -0.26527,-0.31963 -0.46038,-0.48426 -0.63086,-0.5 z m -113.810546,0.0215 c -0.173646,-0.0265 -0.397216,0.0984 -0.71875,0.36523 -0.639264,0.53054 -0.661921,0.77404 -0.103515,1.11915 0.974595,0.60234 1.648452,0.093 1.25,-0.94532 -0.128812,-0.33568 -0.254084,-0.51252 -0.427735,-0.53906 z m 133.142576,0 c -0.17365,-0.0265 -0.39526,0.0984 -0.71679,0.36523 -0.63927,0.53054 -0.66193,0.77404 -0.10352,1.11915 0.9746,0.60234 1.64651,0.095 1.24805,-0.94336 -0.12881,-0.33568 -0.25409,-0.51448 -0.42774,-0.54102 z M 112.85742,228 C 112.38599,228 112,228.25799 112,228.57227 c 0,0.31429 0.38599,0.57031 0.85742,0.57031 0.47143,0 0.85742,-0.25602 0.85742,-0.57031 0,-0.31428 -0.38599,-0.57227 -0.85742,-0.57227 z m 152.31836,0 c -0.29573,0 -0.69638,0.25799 -0.89062,0.57227 -0.19424,0.31429 0.0491,0.57031 0.53906,0.57031 0.48997,0 0.89062,-0.25602 0.89062,-0.57031 0,-0.31428 -0.24332,-0.57227 -0.53906,-0.57227 z m -114.31836,0.0566 c -0.20952,0 -0.41892,0.13372 -0.68554,0.40039 -0.53333,0.53333 -0.38113,0.68555 0.68554,0.68555 1.06667,0 1.21888,-0.15222 0.68555,-0.68555 -0.26667,-0.26667 -0.47602,-0.40039 -0.68555,-0.40039 z m 28.91211,28.33008 c -0.84078,-0.32264 -1.48437,0.0464 -1.48437,0.85156 0,0.2619 0.51405,0.47656 1.14257,0.47656 1.31024,0 1.53434,-0.8705 0.3418,-1.32812 z m -10.10351,18.54101 c -0.19852,-0.008 -0.42461,0.0288 -0.63086,0.11133 -0.45584,0.18241 -0.31998,0.31635 0.3457,0.34375 0.60238,0.0248 0.93988,-0.10895 0.75,-0.29883 -0.0949,-0.0949 -0.26633,-0.14807 -0.46484,-0.15625 z m 20,0 c -0.19852,-0.008 -0.42461,0.0288 -0.63086,0.11133 -0.45584,0.18241 -0.31998,0.31635 0.3457,0.34375 0.60238,0.0248 0.93988,-0.10895 0.75,-0.29883 -0.0949,-0.0949 -0.26633,-0.14807 -0.46484,-0.15625 z m -10.25782,0.63672 c -0.60362,0.0241 -1.12945,0.53404 -0.8125,1.04688 0.18082,0.29256 0.55484,0.53125 0.83203,0.53125 0.80028,0 1.22105,-1.02692 0.58204,-1.42188 -0.19029,-0.1176 -0.40036,-0.1643 -0.60157,-0.15625 z m -0.30468,19.01367 c -0.56268,0.0844 -0.87822,0.6003 -0.42188,1.05665 0.51658,0.51658 1.19601,0.45283 1.56641,-0.14649 0.17388,-0.28135 -0.06,-0.65568 -0.51953,-0.83203 -0.22324,-0.0857 -0.43745,-0.10632 -0.625,-0.0781 z m -15.1504,18.06446 c -0.19847,-0.008 -0.4246,0.0268 -0.63085,0.10937 -0.45585,0.18241 -0.32194,0.31831 0.34375,0.34571 0.60238,0.0248 0.93988,-0.11095 0.75,-0.30078 -0.0949,-0.0949 -0.26438,-0.14613 -0.4629,-0.1543 z m 31.42774,0 c -0.19851,-0.008 -0.42461,0.0268 -0.63086,0.10937 -0.45585,0.18241 -0.31999,0.31831 0.3457,0.34571 0.60238,0.0248 0.93988,-0.11095 0.75,-0.30078 -0.0949,-0.0949 -0.26633,-0.14613 -0.46484,-0.1543 z m -15.95313,1.07226 c -0.31428,0 -0.57031,0.40065 -0.57031,0.89063 0,0.49 0.25603,0.73135 0.57031,0.53711 0.31429,-0.19424 0.57227,-0.59489 0.57227,-0.89063 0,-0.29574 -0.25798,-0.53711 -0.57227,-0.53711 z" />
      <path
         style="opacity:1;fill:#000000;fill-opacity:1;stroke-width:0.376374"
         d="m 118.55769,129.00365 c -7.35544,-1.15591 -8.93031,-1.91869 -11.27734,-5.46205 -1.85522,-2.80087 -2.76095,-6.35795 -2.80168,-11.00311 -0.0341,-3.88854 6.4e-4,-4.06055 1.3727,-6.79492 2.17167,-4.32791 3.8052,-6.309868 6.05379,-7.345041 1.07132,-0.493199 2.41491,-1.486815 2.98575,-2.208035 1.13797,-1.437745 2.79864,-1.971202 4.781,-1.535802 0.74758,0.164195 2.70364,1.652164 5.39275,4.102245 2.32082,2.114533 5.20949,4.572593 6.41926,5.462373 2.43919,1.794 3.61223,3.79332 3.62594,6.17998 0.0124,2.15927 -1.60147,6.54389 -4.54097,12.33705 -3.65358,7.20047 -4.21362,7.4927 -12.0112,6.26731 z"
         id="path2033" />
      <path
         style="opacity:1;fill:#000000;fill-opacity:1;stroke-width:0.376374"
         d="m 233.77029,88.632704 c -5.07249,-1.431791 -8.93737,-4.573416 -9.99098,-8.12132 -1.54963,-5.218177 0.13952,-16.376024 2.94207,-19.434138 1.14224,-1.2464 1.43949,-1.365384 3.84007,-1.537087 3.90394,-0.27923 12.95092,-0.07118 14.51699,0.333847 0.75709,0.195802 2.18962,0.904148 3.18341,1.574102 2.46191,1.659684 3.44522,3.695514 3.95874,8.196126 0.50513,4.427163 0.24759,13.767494 -0.41501,15.050996 -0.90061,1.744557 -2.42573,3.016943 -4.27413,3.56586 -2.85,0.846359 -11.27338,1.073829 -13.76116,0.371614 z"
         id="path2035" />
      <path
         style="opacity:1;fill:#000000;fill-opacity:1;stroke-width:0.188187"
         d="m 326.31592,102.1931 c -2.39137,-0.51163 -5.47141,-1.86843 -7.71566,-3.39885 -2.34579,-1.599669 -4.31527,-4.223127 -4.62514,-6.160937 -0.0816,-0.510176 -0.25716,-0.82962 -0.53887,-0.980386 -0.68528,-0.366749 -1.12663,-1.309866 -1.1121,-2.376423 0.0177,-1.300625 0.9204,-2.963526 2.31016,-4.255716 3.9474,-3.670254 6.32355,-5.462142 10.64659,-8.028736 7.62088,-4.524534 14.27331,-5.835439 18.78404,-3.701523 3.51979,1.665125 5.43905,4.875387 5.46157,9.135292 0.0131,2.471573 -0.30713,3.738298 -1.66495,6.586539 -0.65166,1.366969 -1.14053,2.709903 -1.32716,3.645743 -0.54965,2.756203 -1.82566,5.756956 -3.00145,7.058413 -0.79103,0.875574 -2.43139,1.773144 -3.94986,2.161294 -2.84266,0.72662 -10.49463,0.90847 -13.26717,0.31529 z"
         id="path2037" />
      <path
         style="opacity:1;fill:#000000;fill-opacity:1;stroke-width:0.188187"
         d="m 290.27815,144.50836 c -2.87021,-0.41028 -7.57261,-3.74877 -8.95371,-6.35673 -0.30802,-0.58165 -0.77678,-1.43862 -1.04168,-1.90438 -0.66164,-1.1633 -0.56591,-2.8019 0.25837,-4.42239 1.29334,-2.54267 6.7496,-8.23634 8.89018,-9.277 2.04445,-0.99392 4.90766,-1.53873 8.10492,-1.5422 2.86104,-0.003 5.05393,1.18164 6.67804,3.60792 1.1065,1.653 1.50652,2.76731 1.87942,5.23532 0.38659,2.55859 0.5544,7.55959 0.29995,8.93887 -0.64252,3.48286 -2.68554,5.20579 -6.80024,5.7348 -1.70599,0.21934 -7.74588,0.21012 -9.31525,-0.0142 z"
         id="path2039" />
      <path
         style="opacity:1;fill:#000000;fill-opacity:1;stroke-width:0.188187"
         d="m 313.15425,213.38748 c -2.49596,-0.32301 -4.80597,-1.23527 -6.88022,-2.71713 -2.33061,-1.665 -3.45494,-3.35909 -3.62356,-5.45981 -0.094,-1.17105 -0.0963,-1.17494 -0.74633,-1.28043 -0.81763,-0.13268 -1.83875,-0.89898 -2.24677,-1.68607 -0.42425,-0.8184 -0.41835,-2.4642 0.0129,-3.61287 0.19431,-0.51751 0.73437,-1.49138 1.20012,-2.16414 0.46575,-0.67277 1.28902,-2.02772 1.82949,-3.01099 0.97621,-1.77603 0.98346,-1.80153 1.10412,-3.88131 0.19197,-3.30883 0.93135,-5.10675 2.47123,-6.00918 1.99601,-1.16974 4.22172,-0.15553 5.10282,2.32527 l 0.32348,0.91079 1.9909,0.20533 c 2.54774,0.26277 4.88947,0.94331 7.26012,2.10991 3.19459,1.57207 5.01857,3.57992 5.77432,6.35641 0.89893,3.30246 0.34543,9.99633 -1.07579,13.01031 -1.11983,2.37481 -3.61078,4.38484 -6.07215,4.89981 -1.13076,0.23658 -4.61112,0.2388 -6.42473,0.004 z"
         id="path2041" />
      <path
         style="opacity:1;fill:#0000b2;fill-opacity:1;stroke-width:0.188187"
         d="M 0,147.06799 V 0 h 180.00068 180.00068 v 147.06799 147.06799 h -44.60409 -44.6041 l 0.38966,-0.7057 c 0.21431,-0.38814 0.82998,-1.27203 1.36818,-1.96422 0.53818,-0.69217 1.40193,-2.0288 1.91945,-2.97028 2.37668,-4.3238 2.90492,-5.2048 5.08074,-8.47381 1.27448,-1.9148 2.65304,-4.15893 3.06346,-4.98695 1.56876,-3.16496 2.85379,-7.16397 4.08299,-12.70617 1.97899,-8.92297 2.24989,-13.43896 2.44364,-40.73888 0.14636,-20.62086 -0.11916,-27.8707 -1.23714,-33.77954 -0.37947,-2.00562 -1.58857,-6.80958 -3.43947,-13.66559 -0.98954,-3.66546 -2.24608,-8.95882 -3.19189,-13.44634 -0.84658,-4.0168 -2.47215,-6.98058 -5.49255,-10.01423 -4.02257,-4.04021 -6.83267,-5.82818 -15.3297,-9.75379 -2.97661,-1.37518 -4.86118,-2.4354 -9.78571,-5.50515 -2.32881,-1.4517 -4.82699,-2.87012 -5.55151,-3.15207 -1.69818,-0.66083 -4.07069,-1.25418 -9.31525,-2.32968 -10.5363,-2.16068 -14.14979,-3.48628 -19.86519,-7.28748 -7.64249,-5.08289 -12.03104,-10.78823 -13.83397,-17.98492 -0.47031,-1.87729 -0.40268,-2.63414 0.4116,-4.60611 0.79005,-1.913294 1.42373,-4.206811 2.1363,-7.731855 0.33781,-1.671215 0.80702,-3.446534 1.04267,-3.94515 0.23565,-0.498616 1.07357,-1.641851 1.86205,-2.540522 l 1.43359,-1.633947 -0.0959,-8.290242 -0.0959,-8.290243 -0.65865,-1.30034 c -0.63788,-1.259311 -0.65777,-1.363248 -0.63073,-3.293958 0.0325,-2.320793 0.3362,-5.513907 0.77821,-8.182359 0.56319,-3.399988 0.29933,-14.992828 -0.42833,-18.81868 -0.58507,-3.076256 -2.1499,-5.688048 -5.45315,-9.101625 -3.56998,-3.689214 -7.25985,-6.51897 -11.57919,-8.880092 -2.66762,-1.458231 -3.57534,-2.060294 -4.86562,-3.22725 -2.92068,-2.641535 -6.76494,-5.0848124 -10.01785,-6.3669893 -2.78262,-1.0968056 -6.41791,-1.5922226 -9.52578,-1.2981726 -4.91389,0.4649258 -10.81222,2.687273 -15.58044,5.8703329 -6.25817,4.17768 -12.4341,10.437631 -16.15269,16.37242 -4.44248,7.090111 -4.55879,15.798715 -0.41243,30.880301 1.13173,4.116459 2.18106,7.114745 3.40133,9.718793 0.55778,1.190282 1.03792,2.372142 1.06699,2.626356 0.0458,0.400868 -0.0407,0.478092 -0.65224,0.581883 -0.90502,0.153609 -1.40464,0.608327 -1.95437,1.778712 -0.87189,1.856282 -0.59121,3.122962 1.43868,6.492444 1.46523,2.432172 3.13238,5.810287 4.31861,8.750687 2.37989,5.899207 3.62467,7.258973 5.67469,6.19887 0.31224,-0.161465 0.79439,-0.26732 1.07145,-0.235234 0.43142,0.04997 0.59179,0.264128 1.117,1.491657 0.33729,0.788324 1.07139,3.032453 1.63134,4.986953 2.92948,10.22525 3.04336,15.03654 0.4593,19.40415 -0.87686,1.48209 -4.2722,4.85815 -6.08871,6.05414 -3.15484,2.07715 -8.30169,4.42553 -17.97184,8.20011 -9.36385,3.65502 -14.71458,6.06537 -20.17553,9.08851 -10.65936,5.90095 -19.718067,12.58256 -22.638873,16.6982 -1.786143,2.51682 -3.354029,6.43842 -4.133734,10.3393 -1.078216,5.39433 -1.354747,10.94385 -1.608751,32.28502 -0.181718,15.26778 -0.31978,20.38185 -0.741729,27.47527 -0.297137,4.99517 -0.440052,27.72571 -0.215936,34.34409 0.227783,6.72663 0.386699,8.71537 0.984962,12.32624 0.743413,4.48694 2.328554,9.74267 4.384517,14.53743 l 0.302601,0.7057 H 41.968183 0 Z"
         id="path2043" />
      <path
         style="opacity:1;fill:#0080d9;fill-opacity:1;stroke-width:0.376374"
         d="M 0,195.71428 V 0 H 180.09477 360.18955 V 195.71428 391.42856 H 306.04822 251.9069 l -1.03368,-4.78194 c -0.56852,-2.63006 -2.03703,-7.89316 -3.26336,-11.69582 -2.69341,-8.35177 -3.1319,-11.10723 -2.7918,-17.54327 0.22711,-4.29767 0.57096,-6.10388 3.00938,-15.80769 4.09804,-16.30836 5.09563,-23.13991 5.09563,-34.89522 v -6.73485 h 8.60227 8.60226 l 0.21561,-2.85085 c 0.20151,-2.6644 0.34895,-3.05208 2.25446,-5.92788 1.12137,-1.69237 2.67872,-4.24287 3.46077,-5.66778 0.78206,-1.42491 2.58798,-4.38209 4.01317,-6.57152 1.42519,-2.18943 3.10289,-5.30751 3.72823,-6.92907 1.37036,-3.55347 3.15615,-10.75435 3.94323,-15.90043 0.93024,-6.08207 1.395,-22.69982 1.21051,-43.28296 -0.19943,-22.25028 -0.16808,-21.95722 -3.8413,-35.90281 -1.34178,-5.09412 -2.86974,-11.29444 -3.39547,-13.77851 -1.29426,-6.1153 -2.78932,-9.10328 -6.30217,-12.5953 -3.49826,-3.47752 -6.54204,-5.48344 -12.97911,-8.55352 -2.85129,-1.35989 -7.67258,-3.97935 -10.71398,-5.82103 -3.0414,-1.84168 -6.09003,-3.5824 -6.77473,-3.86828 -0.6847,-0.28588 -4.79844,-1.30647 -9.14165,-2.268 -11.4857,-2.54275 -13.79137,-3.39012 -19.76672,-7.26449 -6.50081,-4.2151 -11.34923,-10.0186 -13.33644,-15.9636 -1.19066,-3.56199 -1.19687,-4.28289 -0.064,-7.42351 0.49598,-1.374949 1.25406,-4.125954 1.68465,-6.113346 1.01313,-4.67619 1.16855,-5.04918 3.03564,-7.285513 l 1.57116,-1.881868 -0.1166,-8.28022 c -0.0988,-7.019906 -0.21663,-8.463558 -0.7738,-9.484743 -0.82318,-1.508716 -0.83358,-3.745211 -0.0469,-10.071506 0.46477,-3.737284 0.55421,-6.524064 0.37494,-11.682761 -0.36048,-10.373708 -1.05113,-12.293256 -6.40983,-17.815143 -3.5328,-3.64039 -6.58615,-5.989574 -11.32409,-8.712537 -1.86305,-1.07072 -3.89547,-2.41757 -4.51649,-2.993 -3.78937,-3.511203 -9.26271,-6.5277048 -13.47221,-7.4248797 -7.11816,-1.5171011 -16.1047,1.184255 -24.28517,7.3001237 -6.50071,4.860052 -13.53565,13.191791 -15.44305,18.289783 -1.2609,3.370057 -1.69162,6.778833 -1.43348,11.34472 0.39081,6.912451 3.19297,18.418234 6.09082,25.009127 1.3198,3.001767 1.39758,3.794388 0.37237,3.794388 -0.28326,0 -0.88271,0.465762 -1.33211,1.035027 -1.21984,1.545221 -0.87605,3.809744 1.07764,7.09829 0.8633,1.453152 2.66863,5.074732 4.01184,8.047955 1.34322,2.973224 2.82293,5.811122 3.28826,6.306441 0.83202,0.885638 1.13483,0.911035 3.20702,0.268968 0.73668,-0.228259 0.94712,-0.03971 1.59802,1.431763 1.20374,2.721261 3.28052,10.769161 3.72737,14.444251 0.74959,6.16502 -0.3116,9.247 -4.66249,13.54122 -2.33139,2.30103 -3.43057,3.03029 -7.75934,5.14799 -2.77375,1.35697 -8.76928,3.93302 -13.3234,5.72457 -18.13747,7.13512 -33.23077,15.86354 -40.560988,23.45633 -4.023412,4.16753 -6.117204,9.44497 -7.043275,17.75269 -0.219216,1.96655 -0.557466,12.89079 -0.751668,24.27609 -0.194205,11.38531 -0.552143,24.85007 -0.795424,29.92171 -0.580658,12.10491 -0.248369,41.35724 0.521598,45.91758 1.209107,7.16129 3.739377,14.4955 7.785529,22.56707 2.637705,5.26189 3.95723,7.38915 4.779056,7.70451 0.312737,0.12001 1.950696,-0.1159 3.639917,-0.52426 1.689218,-0.40835 4.933635,-1.00517 7.209825,-1.32626 2.27618,-0.32109 4.68896,-0.67293 5.36172,-0.78185 l 1.22322,-0.19805 -0.002,3.6867 c -0.003,4.7996 -0.7576,9.66784 -2.62129,16.90856 -2.06537,8.02425 -2.95695,14.54738 -3.41431,24.98006 -0.21326,4.86463 -0.64566,11.55467 -0.96088,14.86676 -0.31522,3.31208 -0.67258,10.46789 -0.79414,15.90178 l -0.221,9.87981 H 50.567214 0 Z"
         id="path3599" />
    </g>
  </g>
</svg>
