<?xml version="1.0" encoding="UTF-8" standalone="no"?>
<!-- Created with Inkscape (http://www.inkscape.org/) -->

<svg
   version="1.1"
   id="svg182"
   width="360"
   height="360"
   viewBox="0 0 360 360"
   sodipodi:docname="target-missed.svg"
   inkscape:version="1.2.2 (732a01da63, 2022-12-09)"
   xmlns:inkscape="http://www.inkscape.org/namespaces/inkscape"
   xmlns:sodipodi="http://sodipodi.sourceforge.net/DTD/sodipodi-0.dtd"
   xmlns="http://www.w3.org/2000/svg"
   xmlns:svg="http://www.w3.org/2000/svg">
  <defs
     id="defs186">
    <clipPath
       clipPathUnits="userSpaceOnUse"
       id="clipPath13703">
      <rect
         style="fill:#0080d9"
         id="rect13705"
         width="359.4368"
         height="360.56592"
         x="0.37637362"
         y="0" />
    </clipPath>
  </defs>
  <sodipodi:namedview
     id="namedview184"
     pagecolor="#ffffff"
     bordercolor="#000000"
     borderopacity="0.25"
     inkscape:showpageshadow="2"
     inkscape:pageopacity="0.0"
     inkscape:pagecheckerboard="0"
     inkscape:deskcolor="#d1d1d1"
     showgrid="false"
     inkscape:zoom="2.6569344"
     inkscape:cx="127.02609"
     inkscape:cy="179.53021"
     inkscape:window-width="2160"
     inkscape:window-height="1330"
     inkscape:window-x="-12"
     inkscape:window-y="-12"
     inkscape:window-maximized="1"
     inkscape:current-layer="g188" />
  <g
     inkscape:groupmode="layer"
     inkscape:label="Image"
     id="g188">
    <g
       id="g13699"
       clip-path="url(#clipPath13703)">
      <path
         style="fill:#000000;stroke-width:0.571429"
         d="M 0,195.71428 V 0 h 180 180 v 195.71428 195.71428 h -53.98911 -53.98912 l -0.29833,-1.28571 c -0.16409,-0.70715 -0.6777,-3.14032 -1.14136,-5.40705 -0.46366,-2.26673 -1.94145,-7.28102 -3.28398,-11.14286 -2.35493,-6.77408 -2.44039,-7.26317 -2.42485,-13.87866 0.0147,-6.26236 0.22381,-7.61044 2.41073,-15.54167 4.24865,-15.40841 5.84593,-25.62864 5.85419,-37.45833 l 0.005,-6.71429 h 8.50067 8.50066 l 0.26168,-3.1555 c 0.19639,-2.36813 0.62672,-3.54445 1.72463,-4.71429 0.80463,-0.85733 2.28951,-3.23021 3.29972,-5.27307 1.01023,-2.04285 2.85937,-5.08233 4.10921,-6.75438 3.34895,-4.48029 5.34302,-9.27408 7.0271,-16.89337 2.28521,-10.33896 2.48041,-13.45486 2.61737,-41.78082 0.14363,-29.70396 0.13335,-29.81332 -4.31479,-45.89393 -1.41112,-5.10138 -2.83882,-11.00504 -3.17266,-13.11923 -0.80559,-5.10158 -2.44949,-8.36596 -6.01302,-11.94037 -3.62056,-3.63161 -8.19134,-6.60371 -13.44193,-8.74046 -2.19343,-0.89262 -5.78009,-2.74092 -7.97037,-4.10733 -2.19029,-1.36642 -5.24442,-3.27395 -6.78696,-4.23897 -2.24597,-1.40508 -4.66506,-2.11927 -12.1444,-3.58541 -10.04337,-1.96875 -13.8695,-3.41807 -20.01271,-7.58071 -7.11428,-4.82065 -11.26349,-10.26648 -13.12504,-17.22659 -0.61245,-2.28991 -0.55243,-2.88661 0.54756,-5.443603 0.67948,-1.579486 1.54108,-4.760543 1.91468,-7.069017 0.55202,-3.410971 1.02467,-4.571885 2.52309,-6.197228 l 1.84382,-2 -0.0156,-8.571428 c -0.0124,-6.820943 -0.19225,-8.773583 -0.8807,-9.561309 -0.69716,-0.797691 -0.78978,-1.907125 -0.47703,-5.714285 0.21346,-2.598423 0.58366,-5.624406 0.82269,-6.724406 0.23901,-1.1 0.27804,-5.6 0.0867,-10 -0.27288,-6.276372 -0.59775,-8.554022 -1.50778,-10.571428 C 204.79509,28.123024 197.17642,21.16319 190,17.558613 c -1.57143,-0.789297 -3.37143,-2.008432 -4,-2.709187 -0.62857,-0.700754 -2.55714,-2.223089 -4.28571,-3.382964 -8.31731,-5.5809279 -16.00971,-5.910891 -26.28572,-1.127518 -7.7853,3.623972 -17.64735,12.974344 -21.69593,20.570269 -3.68861,6.920541 -3.41837,15.815622 0.94455,31.090785 0.80791,2.828572 2.0789,6.355737 2.82444,7.838149 1.59398,3.169445 1.61491,3.304708 0.51154,3.304708 -1.33767,0 -2.76785,2.655177 -2.40564,4.466194 0.17552,0.877634 1.19661,2.899617 2.26908,4.493303 1.07246,1.59368 2.91601,5.390903 4.09677,8.438274 2.2398,5.780605 3.46317,7.062463 5.64699,5.916977 0.57692,-0.302612 1.18514,-0.414 1.3516,-0.247537 1.08086,1.080857 4.31776,12.662654 4.5727,16.361364 0.40442,5.86713 -0.4066,8.43076 -3.8638,12.21349 -3.36058,3.67701 -8.60323,6.42922 -21.96658,11.53173 -10.82793,4.1344 -17.26305,7.19153 -24.89867,11.82859 -11.0179,6.6911 -16.955169,11.6195 -19.102077,15.85622 -3.740863,7.38224 -4.372343,13.09596 -4.555777,41.22115 -0.08535,13.08673 -0.344795,24.10084 -0.576537,24.47582 -0.231749,0.37497 -0.452309,10.11051 -0.490132,21.63452 -0.0759,23.12318 0.336452,27.34561 3.64676,37.3423 2.078172,6.27581 8.18504,18.51893 9.620412,19.28711 0.775702,0.41515 1.8032,0.34639 3.579182,-0.23951 1.370115,-0.45201 5.126839,-1.16879 8.348259,-1.59285 l 5.85715,-0.77102 v 3.81708 c 0,4.7571 -1.23112,11.9073 -3.14271,18.2525 -1.73872,5.7714 -3.12793,17.26534 -3.14247,26 -0.006,3.45714 -0.39171,9.5 -0.85768,13.42857 -0.46597,3.92857 -0.84945,11.06429 -0.85218,15.85714 l -0.005,8.71429 H 50.571429 0 Z m 322.19627,13.65444 c -0.48833,-1.76857 -0.40101,-2.23841 0.61749,-3.32254 0.65243,-0.69449 1.18624,-1.73207 1.18624,-2.30573 0,-0.57367 0.44029,-1.36499 0.97843,-1.75848 0.74522,-0.54492 0.82551,-0.90044 0.33685,-1.49157 -0.35287,-0.42686 -0.81976,-1.72963 -1.03753,-2.89502 -0.88958,-4.76055 -1.67645,-6.08952 -4.49184,-7.58648 -1.80114,-0.95767 -3.18017,-1.32444 -4.10608,-1.09205 -0.84981,0.21329 -1.39412,0.10261 -1.39412,-0.28348 0,-1.04768 -1.63139,-0.71312 -2.26122,0.46372 -0.66099,1.23508 -4.20438,2.604 -5.47663,2.11579 -0.61421,-0.2357 -0.83357,0.12306 -0.83357,1.3633 0,1.15772 -0.43903,1.97084 -1.4063,2.60462 -1.69905,1.11326 -2.35298,2.87505 -1.46451,3.94559 0.39286,0.47336 0.5291,1.83242 0.34265,3.41783 -0.28122,2.39115 -0.17971,2.69115 1.1093,3.27846 0.78037,0.35556 1.41886,0.99996 1.41886,1.432 0,0.43204 0.41493,1.41879 0.92207,2.19278 0.89369,1.36396 1.09403,1.4007 6.51005,1.19396 3.07339,-0.11732 5.93703,0.008 6.36364,0.27817 0.42662,0.27031 1.33351,0.49542 2.01532,0.50023 1.14847,0.008 1.19782,-0.14276 0.6709,-2.0511 z M 300.1939,140.40206 c -0.21371,-1.31692 -0.031,-2.11164 0.60736,-2.6414 0.50216,-0.41676 0.91303,-1.18912 0.91303,-1.71634 0,-0.52724 0.30857,-1.26718 0.68571,-1.64432 0.53333,-0.53334 0.53333,-0.8381 0,-1.37143 -0.37714,-0.37715 -0.68571,-1.32317 -0.68571,-2.10229 0,-2.88806 -1.26429,-5.09319 -3.49751,-6.10023 -1.18543,-0.53455 -2.52353,-0.83061 -2.97356,-0.65792 -0.45004,0.17269 -1.10064,0.0316 -1.4458,-0.31357 -0.45579,-0.45579 -0.90496,-0.39561 -1.64106,0.21988 -1.44392,1.20732 -4.14811,2.28381 -4.77061,1.89909 -0.29073,-0.17968 -0.52861,0.25739 -0.52861,0.97128 0,0.72785 -0.68284,1.84245 -1.55461,2.53758 -1.2974,1.03451 -1.43519,1.38353 -0.83274,2.10943 0.39704,0.4784 0.65198,1.73023 0.56653,2.78186 -0.115,1.41529 0.33789,2.59632 1.74326,4.546 l 1.89862,2.63396 4.25207,-0.1507 c 3.39916,-0.12046 6.0234,0.1727 7.46238,0.83366 0.0588,0.027 -0.0306,-0.79853 -0.19875,-1.83454 z M 127.57494,121.64169 c -0.24461,-1.82369 -0.10275,-2.47781 0.6258,-2.88553 0.51816,-0.28998 0.94212,-1.11747 0.94212,-1.83885 0,-0.72139 0.52399,-1.78582 1.16441,-2.3654 1.0105,-0.91448 1.04827,-1.11878 0.28572,-1.54552 -0.48329,-0.27047 -0.8787,-1.05002 -0.8787,-1.73234 0,-0.68233 -0.31592,-2.59945 -0.70206,-4.26027 -0.50291,-2.16317 -1.02968,-3.12218 -1.85714,-3.38105 -0.6353,-0.19876 -1.78107,-0.8503 -2.54617,-1.44789 -0.99637,-0.77823 -1.86784,-0.98179 -3.07138,-0.71745 -1.123,0.24665 -1.83719,0.11522 -2.15331,-0.39627 -0.36763,-0.59485 -0.83604,-0.41752 -2.10274,0.79605 -0.89636,0.85877 -2.0505,1.5614 -2.56475,1.5614 -0.51425,0 -1.10039,0.2676 -1.30253,0.59467 -0.20215,0.32707 -0.86018,0.43832 -1.4623,0.24721 -0.88574,-0.28113 -1.09477,-0.0658 -1.09477,1.12767 0,0.93493 -0.6626,2.06717 -1.8094,3.09183 -1.69435,1.5139 -1.75423,1.69546 -0.94164,2.85558 0.60132,0.85852 0.78541,2.09576 0.59957,4.02978 -0.23797,2.47666 -0.12955,2.83488 0.96296,3.18163 0.68345,0.21691 1.65591,1.37123 2.18599,2.59477 l 0.95485,2.20401 5.84929,-0.15974 c 3.21711,-0.0879 6.18498,0.0531 6.59526,0.31339 0.41029,0.26021 1.17151,0.47707 1.6916,0.48188 0.77904,0.007 0.88991,-0.4067 0.62932,-2.34956 z M 337.62482,97.940054 c -0.4916,-1.7804 -0.4078,-2.209914 0.61748,-3.165114 0.65245,-0.607846 1.18627,-1.524914 1.18627,-2.03792 0,-0.513011 0.43978,-1.418691 0.97728,-2.012628 0.65628,-0.725177 0.7737,-1.209195 0.3575,-1.473566 -0.34087,-0.216526 -0.79362,-1.293686 -1.00611,-2.393686 -0.93183,-4.823942 -1.74739,-6.867565 -2.88235,-7.222662 -0.63833,-0.199715 -1.76031,-0.831377 -2.49328,-1.403692 -0.91333,-0.713143 -1.85732,-0.935645 -3,-0.707108 -1.05171,0.210343 -1.66732,0.09611 -1.66732,-0.309395 0,-1.073388 -1.12265,-0.723548 -2.52139,0.785715 -0.72817,0.785714 -1.72929,1.428571 -2.2247,1.428571 -0.49542,0 -1.07255,0.277977 -1.28253,0.617732 -0.20998,0.339748 -0.97219,0.469542 -1.6938,0.288428 -1.11013,-0.278623 -1.26434,-0.14696 -1.00217,0.8556 0.22003,0.841383 -0.20984,1.659554 -1.48278,2.822211 -1.8007,1.644692 -2.2718,3.05244 -1.23576,3.692749 0.30629,0.189291 0.44943,1.622377 0.3181,3.184628 -0.20679,2.459926 -0.0663,2.953457 1.04856,3.683949 0.70803,0.463926 1.64211,1.747697 2.07573,2.85284 l 0.78841,2.009343 6.17918,-0.09739 c 3.39854,-0.05354 6.34989,0.07332 6.55854,0.281977 0.20865,0.208652 0.95864,0.379364 1.66664,0.379364 1.20254,0 1.24983,-0.135592 0.7185,-2.059941 z M 245.51541,83.423203 c -0.55571,-2.082 -0.49632,-2.371771 0.65082,-3.175262 0.70432,-0.493326 1.26234,-1.488806 1.26234,-2.251949 0,-0.75228 0.44465,-1.616617 0.98811,-1.920749 0.89598,-0.501417 0.90578,-0.650577 0.10515,-1.599822 -0.48562,-0.575772 -0.95137,-2.075423 -1.03498,-3.332566 -0.0836,-1.257143 -0.38807,-2.53 -0.67658,-2.828571 -0.2885,-0.298572 -0.52456,-0.978766 -0.52456,-1.511543 0,-1.295629 -5.39809,-4.122971 -6.93838,-3.634097 -0.7456,0.23664 -1.39594,0.02114 -1.86274,-0.617234 -0.66061,-0.90344 -0.81029,-0.862452 -1.89741,0.5196 -0.64913,0.825228 -1.54408,1.500417 -1.98877,1.500417 -0.4447,0 -1.28739,0.350137 -1.87264,0.778085 -0.58526,0.427949 -1.50291,0.663338 -2.03922,0.523092 -0.76026,-0.198812 -0.91869,0.04017 -0.71904,1.084605 0.19106,0.999475 -0.18943,1.668983 -1.49857,2.636875 -1.72968,1.278811 -2.30259,3.142685 -1.17935,3.83688 0.32615,0.201577 0.45302,1.584017 0.29295,3.192131 -0.25849,2.596737 -0.16219,2.89132 1.13898,3.484171 0.78174,0.356183 1.42134,0.940777 1.42134,1.299103 0,0.358326 0.31999,1.329566 0.7111,2.158314 l 0.7111,1.506817 6.00319,-0.239005 c 3.33938,-0.132955 6.38352,0.0058 6.86032,0.31264 0.47143,0.303405 1.27142,0.555588 1.77776,0.5604 0.79549,0.0075 0.8375,-0.302623 0.30908,-2.282332 z m -73.2297,240.831117 c -21.65049,-2.181 -39.07086,-9.39774 -55.0434,-22.80284 -16.66745,-13.98831 -28.797676,-35.37357 -32.101647,-56.59434 -2.293446,-14.73035 -2.293446,-17.84108 0,-32.57143 4.673446,-30.01665 25.414607,-57.21754 53.742797,-70.48071 10.51816,-4.92458 20.40277,-7.58246 32.32987,-8.69319 8.69497,-0.80973 7.34277,-0.80649 15.9939,-0.0384 23.45438,2.08247 44.1777,11.90125 60.60795,28.71625 16.03735,16.4129 24.97651,36.02935 27.05513,59.37085 0.74822,8.40207 0.74922,6.67895 -0.009,15.12517 -3.07397,34.255 -23.13178,63.64402 -53.43302,78.29091 -11.51385,5.56552 -20.7555,8.18738 -33.14285,9.40265 -3.45715,0.33916 -6.92857,0.69522 -7.71429,0.79124 -0.78571,0.096 -4.51428,-0.13626 -8.28571,-0.51619 z m 16,-1.48008 c 10.93994,-1.06783 20.0949,-3.47052 29.66218,-7.78477 27.72528,-12.50238 47.63225,-37.17195 54.0851,-67.02459 1.56091,-7.22124 2.17043,-24.8692 1.11386,-32.2506 -5.8578,-40.92347 -36.98971,-73.14312 -77.65507,-80.36831 -9.28211,-1.64919 -22.91596,-1.636 -32.30932,0.0313 -42.26016,7.50093 -74.445134,42.57832 -77.907071,84.90847 -0.630115,7.70457 -0.631835,8.71661 -0.02794,16.48559 3.725994,47.93656 44.552341,85.89681 93.038291,86.50678 2.35714,0.0297 6.85714,-0.19708 10,-0.50385 z m -9.42857,-8.16909 c 0,-0.48998 0.25715,-0.89087 0.57143,-0.89087 0.31429,0 0.57143,0.24196 0.57143,0.5377 0,0.29574 -0.25714,0.69663 -0.57143,0.89087 -0.31428,0.19424 -0.57143,-0.0477 -0.57143,-0.5377 z m -15.53571,-1.85265 c 0.4125,-0.16507 0.90536,-0.14477 1.09524,0.0451 0.18988,0.18988 -0.14762,0.32493 -0.75,0.30012 -0.66569,-0.0274 -0.80109,-0.16282 -0.34524,-0.34523 z m 31.42857,0 c 0.4125,-0.16507 0.90536,-0.14477 1.09524,0.0451 0.18988,0.18988 -0.14762,0.32493 -0.75,0.30012 -0.66569,-0.0274 -0.80109,-0.16282 -0.34524,-0.34523 z m -21.89286,-7.68366 c -31.59595,-2.76497 -58.16376,-24.64949 -67.20047,-55.35456 -5.22113,-17.74049 -3.32811,-38.41409 5.04929,-55.14286 5.43342,-10.84995 14.60741,-21.60807 24.22009,-28.40233 31.52852,-22.28443 73.45566,-18.19281 100.06098,9.76481 32.56461,34.21984 26.57009,89.60924 -12.57106,116.15664 -10.66408,7.23289 -23.12464,11.77225 -34.9874,12.74585 -2.35714,0.19345 -5.31428,0.43741 -6.57143,0.54213 -1.25714,0.10471 -4.85714,-0.0346 -8,-0.30968 z m 24.07712,-2.98745 c 15.11384,-3.81149 26.28128,-10.34935 37.36412,-21.87442 28.14285,-29.26579 27.14653,-77.20175 -2.19208,-105.46798 -5.93611,-5.71911 -9.85622,-8.68015 -15.88966,-12.00218 -6.44663,-3.54952 -12.16284,-5.81049 -19.3595,-7.6574 -5.83196,-1.49668 -7.09009,-1.61399 -17.42857,-1.62514 -10.42167,-0.0113 -11.54968,0.0934 -17.42857,1.61699 -15.43697,4.00063 -26.77106,10.61952 -37.49865,21.89848 -9.71265,10.21184 -16.11694,22.43509 -19.10237,36.45883 -1.21537,5.70906 -1.66277,19.57614 -0.81858,25.37155 4.30786,29.5735 25.17414,54.00629 53.03336,62.09792 8.95083,2.59975 12.77542,3.06227 23.5291,2.84547 8.38528,-0.16905 10.93515,-0.43744 15.7914,-1.66212 z m -18.25206,-6.44682 c -0.60846,-0.60846 0.15415,-1.32098 1.0471,-0.97832 0.45956,0.17635 0.69329,0.55084 0.51941,0.83219 -0.3704,0.59932 -1.04993,0.66271 -1.56651,0.14613 z m -2.11077,-9.2224 c -14.07522,-0.8717 -27.59078,-6.91405 -37.56301,-16.79315 -17.91404,-17.74675 -22.337,-43.80832 -11.2818,-66.47617 3.05468,-6.26336 6.89777,-11.42103 12.3248,-16.54061 19.37732,-18.27959 48.31646,-20.90397 70.7171,-6.41307 17.88343,11.56873 28.60949,33.93661 25.99375,54.2068 -0.90575,7.01891 -2.47188,12.92997 -4.76677,17.99125 -5.94804,13.11812 -18.28649,24.78491 -31.7048,29.97893 -7.22884,2.79816 -16.98809,4.46289 -23.71927,4.04602 z m 15.14286,-2.66769 c 11.37373,-2.63057 20.4943,-7.86883 28.62113,-16.4381 6.92824,-7.30543 11.14469,-14.93371 13.79239,-24.95274 1.23628,-4.67813 1.45254,-6.73016 1.45254,-13.78222 0,-7.02917 -0.21792,-9.10996 -1.43697,-13.72084 -6.93277,-26.22214 -30.59399,-43.8854 -57.08576,-42.61494 -23.90761,1.14654 -44.4932,16.9327 -51.53691,39.52135 -10.31552,33.08111 11.39514,67.58213 45.80155,72.78452 4.6966,0.71014 15.74209,0.27842 20.39203,-0.79703 z m -13.11846,-7.13357 c -0.4226,-0.68378 0.65236,-1.36128 1.41349,-0.89087 0.63906,0.39496 0.21953,1.42281 -0.58075,1.42281 -0.27719,0 -0.65192,-0.23938 -0.83274,-0.53194 z m -9.56012,-1.5727 c 0.4125,-0.16506 0.90536,-0.14477 1.09524,0.0451 0.18988,0.18988 -0.14762,0.32494 -0.75,0.30013 -0.66568,-0.0274 -0.80108,-0.16283 -0.34524,-0.34524 z m 20,0 c 0.4125,-0.16506 0.90536,-0.14477 1.09524,0.0451 0.18988,0.18988 -0.14762,0.32494 -0.75,0.30013 -0.66568,-0.0274 -0.80108,-0.16283 -0.34524,-0.34524 z m -15.32142,-8.18144 c -2.98572,-0.55165 -7.0048,-1.64667 -8.9313,-2.43337 -9.15225,-3.7374 -17.73066,-12.37271 -21.30856,-21.44992 -1.44765,-3.6727 -2.99442,-11.14705 -2.98112,-14.40537 0.0201,-4.91547 1.75777,-11.57431 4.46951,-17.12713 2.17089,-4.44532 3.48087,-6.25203 7.30823,-10.07937 3.85235,-3.85236 5.60048,-5.1155 10.05323,-7.26411 3.10942,-1.50041 6.96157,-2.87121 9.10429,-3.2398 2.04286,-0.35141 4.61429,-0.82724 5.71429,-1.05741 1.1,-0.23016 2.9,-0.23842 4,-0.0183 1.1,0.22006 3.8,0.69313 6,1.05127 2.54745,0.41471 5.95731,1.59787 9.39,3.25817 10.06123,4.86635 17.98942,14.77187 20.27941,25.3372 1.97628,9.11795 1.97654,9.41097 0.0156,18.28571 -3.25836,14.74685 -16.61205,26.9705 -31.76648,29.07829 -2.363,0.32866 -4.66135,0.70324 -5.10746,0.83239 -0.44608,0.12913 -3.25393,-0.21655 -6.23964,-0.76821 z M 190,264.52331 c 12.64763,-3.75624 22.72238,-14.36057 25.74163,-27.09475 1.06108,-4.47528 1.03773,-13.33195 -0.0473,-17.93483 -1.94743,-8.26145 -8.20842,-17.09677 -15.57215,-21.97496 -4.3812,-2.90238 -6.85832,-4.01712 -11.73413,-5.28058 -4.42085,-1.14555 -13.8429,-1.111 -18.38811,0.0674 -11.00912,2.85433 -20.95447,11.5854 -25.27799,22.19165 -1.80486,4.4276 -3.20115,12.07351 -2.45832,13.46148 0.29706,0.55508 0.32166,1.24121 0.0547,1.52513 -0.61156,0.65036 0.25844,7.03213 1.47258,10.80183 3.4339,10.66172 13.35174,20.52315 24.14464,24.0073 6.59846,2.13011 15.3597,2.22155 22.06446,0.2303 z m -11.71429,-7.28522 c 0,-0.80514 0.64366,-1.17451 1.48444,-0.85187 1.19254,0.45762 0.96866,1.32806 -0.34158,1.32806 -0.62857,0 -1.14286,-0.21429 -1.14286,-0.47619 z m -2.25982,-9.28477 c -7.88584,-1.56475 -14.69773,-8.23408 -15.80305,-15.47232 -0.20837,-1.36456 -0.58619,-2.74677 -0.83959,-3.0716 -0.2534,-0.32482 -0.22224,-0.96768 0.0693,-1.42857 0.2915,-0.46089 0.53393,-1.40691 0.53874,-2.10226 0.0211,-3.05126 2.50666,-7.89649 5.67732,-11.06715 12.36344,-12.36343 33.22989,-3.73469 33.27514,13.76 0.0311,12.02754 -11.37353,21.67259 -22.91782,19.3819 z m 6.12937,-10.25373 c 3.08827,-1.1374 4.69257,-2.74166 5.8302,-5.83005 l 0.89914,-2.44098 4.5577,-0.32378 4.5577,-0.32378 -4.28571,-0.11114 -4.28572,-0.11115 -1.14286,-2.90573 c -0.76734,-1.95099 -1.70041,-3.21625 -2.83975,-3.85079 -0.93329,-0.51978 -2.0593,-1.28127 -2.50225,-1.6922 -0.44294,-0.41093 -1.2222,-0.5767 -1.73168,-0.36838 -0.50947,0.20832 -2.25472,0.42085 -3.87832,0.47229 -2.02946,0.0643 -3.33802,0.44286 -4.1872,1.21136 -1.20404,1.08964 -3.43222,5.33758 -3.43222,6.54338 0,0.36101 -1.77627,0.64891 -4.42858,0.71778 l -4.42857,0.115 4.34488,0.19324 4.34487,0.19325 0.66904,2.23305 c 0.74818,2.49723 3.80321,5.3567 6.76869,6.33539 l 1.87252,0.61799 0.10295,4.38425 0.10295,4.38426 0.32562,-4.27213 0.32563,-4.27213 z m -3.86955,-3.86083 c -1.33752,-0.42696 -2.78921,-1.8704 -3.68301,-3.66206 -1.1253,-2.25572 -0.25721,-4.49842 2.26749,-5.85806 1.09283,-0.58852 1.98695,-1.41526 1.98695,-1.8372 0,-1.10463 0.27968,-0.9818 2.48184,1.08998 2.51156,2.36288 3.80179,4.9299 3.2311,6.42857 -0.80089,2.10321 -4.54901,4.39273 -6.28437,3.83877 z m 3.42858,-11.80504 c 0,-0.48998 0.25714,-0.89087 0.57142,-0.89087 0.31429,0 0.57143,0.24197 0.57143,0.5377 0,0.29574 -0.25714,0.69663 -0.57143,0.89087 -0.31428,0.19424 -0.57142,-0.0477 -0.57142,-0.5377 z m 25.48457,7.19975 c -0.14647,-0.237 -0.0677,-0.75223 0.175,-1.14495 0.34511,-0.55841 0.58919,-0.53586 1.11973,0.1034 0.5337,0.64307 0.49637,0.88733 -0.17499,1.14495 -0.46939,0.18012 -0.97327,0.13359 -1.11974,-0.1034 z m -57.02743,-0.77633 c 0.53333,-0.53334 0.8381,-0.53334 1.37143,0 0.53333,0.53333 0.38095,0.68571 -0.68572,0.68571 -1.06667,0 -1.21904,-0.15238 -0.68571,-0.68571 z M 196,205.71428 c -0.51502,-0.33283 -0.5855,-0.55742 -0.17658,-0.56268 0.37431,-0.005 0.83948,0.24839 1.03372,0.56268 0.43846,0.70945 0.24064,0.70945 -0.85714,0 z m -17.3727,-4.99175 c -0.68787,-0.68787 -0.31255,-1.29396 0.80127,-1.29396 0.62857,0 1.14286,0.22963 1.14286,0.51029 0,0.64231 -1.48636,1.24145 -1.94413,0.78367 z m -4.18785,-0.5471 c 0.55598,-0.14488 1.32741,-0.13536 1.71428,0.0212 0.38688,0.15653 -0.068,0.27507 -1.01087,0.26342 -0.94286,-0.0117 -1.2594,-0.13971 -0.70341,-0.28459 z m 8.88198,0.006 c 0.4125,-0.16507 0.90536,-0.14477 1.09524,0.0451 0.18988,0.18988 -0.14762,0.32494 -0.75,0.30012 -0.66569,-0.0274 -0.80109,-0.16282 -0.34524,-0.34523 z m -52.17857,28.96171 c -0.22809,-0.36906 -0.15757,-0.92815 0.15672,-1.24243 0.38095,-0.38096 0.70967,-0.34776 0.98613,0.0996 0.22809,0.36906 0.15757,0.92815 -0.15672,1.24244 -0.38095,0.38095 -0.70966,0.34776 -0.98613,-0.0996 z m 95.23138,0.0547 c -0.55841,-0.34511 -0.53586,-0.58919 0.10341,-1.11973 0.64306,-0.5337 0.88732,-0.49637 1.14494,0.17499 0.39846,1.03836 -0.27375,1.54708 -1.24835,0.94474 z M 198.28571,185.1431 c -0.47142,-0.30466 -0.6,-0.55392 -0.28571,-0.55392 0.31429,0 0.95714,0.24926 1.42857,0.55392 0.47143,0.30466 0.6,0.55393 0.28572,0.55393 -0.31429,0 -0.95715,-0.24927 -1.42858,-0.55393 z m -32.14285,-2.66416 c 0.39285,-0.15852 1.03571,-0.15852 1.42857,0 0.39286,0.15852 0.0714,0.28822 -0.71429,0.28822 -0.78571,0 -1.10714,-0.1297 -0.71428,-0.28822 z m 25.14285,0 c 0.39286,-0.15852 1.03572,-0.15852 1.42858,0 0.39285,0.15852 0.0714,0.28822 -0.71429,0.28822 -0.78571,0 -1.10714,-0.1297 -0.71429,-0.28822 z m -22.25,-0.58333 c 0.4125,-0.16507 0.90536,-0.14477 1.09524,0.0451 0.18988,0.18988 -0.14762,0.32493 -0.75,0.30012 -0.66568,-0.0274 -0.80108,-0.16282 -0.34524,-0.34523 z m 20,0 c 0.4125,-0.16507 0.90536,-0.14477 1.09524,0.0451 0.18988,0.18988 -0.14762,0.32493 -0.75,0.30012 -0.66568,-0.0274 -0.80108,-0.16282 -0.34524,-0.34523 z m -10.43988,-0.71302 c -0.4226,-0.68377 0.65236,-1.36128 1.41349,-0.89087 0.63906,0.39496 0.21953,1.42281 -0.58075,1.42281 -0.27719,0 -0.65192,-0.23938 -0.83274,-0.53194 z m 66.83274,47.96051 c -0.22808,-0.36906 -0.15756,-0.92815 0.15672,-1.24243 0.38096,-0.38096 0.70967,-0.34776 0.98614,0.0996 0.22808,0.36906 0.15756,0.92815 -0.15672,1.24244 -0.38096,0.38095 -0.70967,0.34776 -0.98614,-0.0996 z M 112,228.57142 c 0,-0.31428 0.38571,-0.57143 0.85714,-0.57143 0.47143,0 0.85715,0.25715 0.85715,0.57143 0,0.31429 -0.38572,0.57143 -0.85715,0.57143 -0.47143,0 -0.85714,-0.25714 -0.85714,-0.57143 z m 47.32143,-63.81892 c 0.4125,-0.16506 0.90536,-0.14477 1.09524,0.0451 0.18988,0.18988 -0.14762,0.32494 -0.75,0.30013 -0.66569,-0.0274 -0.80109,-0.16283 -0.34524,-0.34524 z m 39.42857,0 c 0.4125,-0.16506 0.90536,-0.14477 1.09524,0.0451 0.18988,0.18988 -0.14762,0.32494 -0.75,0.30013 -0.66569,-0.0274 -0.80109,-0.16283 -0.34524,-0.34524 z m -30.02484,-2.29136 c 0.55598,-0.14488 1.32741,-0.13535 1.71429,0.0212 0.38687,0.15654 -0.068,0.27507 -1.01088,0.26343 -0.94286,-0.0117 -1.25939,-0.13972 -0.70341,-0.2846 z m 6.98913,-0.19312 -3.42858,-0.3034 3.69938,-0.26803 c 2.03465,-0.14741 5.24894,-0.12683 7.14285,0.0457 l 3.44349,0.31378 -3.71429,0.25765 c -2.04285,0.14172 -5.25714,0.12113 -7.14285,-0.0457 z m 12.71428,0.21067 c 0.39286,-0.15852 1.03572,-0.15852 1.42857,0 0.39286,0.15852 0.0714,0.28823 -0.71428,0.28823 -0.78572,0 -1.10715,-0.12971 -0.71429,-0.28823 z m -95.197187,66.71887 c -0.558406,-0.34511 -0.535863,-0.58919 0.103406,-1.11973 0.643068,-0.5337 0.887325,-0.49637 1.144948,0.17499 0.398457,1.03836 -0.273754,1.54708 -1.248354,0.94474 z m 171.054327,-0.62614 c 0.19424,-0.31428 0.59514,-0.57143 0.89087,-0.57143 0.29574,0 0.53771,0.25715 0.53771,0.57143 0,0.31429 -0.4009,0.57143 -0.89087,0.57143 -0.48998,0 -0.73195,-0.25714 -0.53771,-0.57143 z m -24.93003,-61 c -0.71078,-0.90632 -0.69057,-0.92653 0.21575,-0.21574 0.95186,0.74649 1.25456,1.21574 0.78425,1.21574 -0.11866,0 -0.56866,-0.45 -1,-1 z m -79.20195,-22.82456 c 0.55598,-0.14488 1.32741,-0.13536 1.71429,0.0212 0.38687,0.15653 -0.068,0.27507 -1.01088,0.26342 -0.94285,-0.0117 -1.25939,-0.13971 -0.70341,-0.28459 z m 37.14286,0 c 0.55598,-0.14488 1.32741,-0.13536 1.71428,0.0212 0.38688,0.15653 -0.068,0.27507 -1.01087,0.26342 -0.94286,-0.0117 -1.25939,-0.13971 -0.70341,-0.28459 z m -34.01088,-0.55388 c 0.39286,-0.15852 1.03572,-0.15852 1.42858,0 0.39285,0.15852 0.0714,0.28822 -0.71429,0.28822 -0.78571,0 -1.10714,-0.1297 -0.71429,-0.28822 z m 30.85715,0 c 0.39285,-0.15852 1.03571,-0.15852 1.42857,0 0.39286,0.15852 0.0714,0.28822 -0.71429,0.28822 -0.78571,0 -1.10714,-0.1297 -0.71428,-0.28822 z m -15.49236,-1.05013 c -0.22775,-0.59349 0.0386,-0.85714 0.86597,-0.85714 0.99734,0 1.07728,0.14171 0.48353,0.85714 -0.39125,0.47143 -0.78094,0.85715 -0.86598,0.85715 -0.085,0 -0.30261,-0.38572 -0.48352,-0.85715 z"
         id="path248" />
      <path
         style="opacity:0.394402;fill:#ff0000;stroke-width:0.376374"
         d="M 0,195.71428 V 0 h 179.90659 179.90658 v 195.71428 195.71428 h -53.82142 c -29.60179,0 -53.82207,-0.12703 -53.82286,-0.28228 -0.007,-1.29341 -3.00251,-12.48176 -4.76198,-17.78366 l -2.1858,-6.58653 0.0227,-7.1511 0.0227,-7.1511 1.76948,-6.58654 c 4.53503,-16.88082 5.82702,-24.64831 6.15077,-36.97871 l 0.22482,-8.5625 h 8.37927 8.37928 l 0.20133,-1.4114 c 0.11073,-0.77627 0.30336,-2.2025 0.42806,-3.16941 0.15077,-1.16908 0.64699,-2.30842 1.48129,-3.40107 0.69002,-0.90369 2.14382,-3.24589 3.23067,-5.2049 1.08686,-1.95901 3.11233,-5.27143 4.50104,-7.36092 1.38872,-2.08949 3.08297,-5.13812 3.76501,-6.77473 1.48718,-3.56862 3.49049,-11.32386 4.32312,-16.73571 0.90498,-5.88207 1.4223,-24.92404 1.22128,-44.95422 -0.20554,-20.48095 -0.25034,-20.89304 -3.66213,-33.68543 -1.24221,-4.65763 -2.69235,-10.50083 -3.22253,-12.98489 -1.23233,-5.77387 -2.19287,-8.54725 -3.80686,-10.99166 -2.81857,-4.26875 -9.04062,-8.92166 -16.19061,-12.10749 -2.24541,-1.00049 -6.95018,-3.54176 -10.45505,-5.64726 -3.50486,-2.1055 -7.21834,-4.07938 -8.25218,-4.3864 -1.03384,-0.30701 -4.76634,-1.16153 -8.29444,-1.89892 -10.67592,-2.2313 -15.2877,-4.10866 -21.57539,-8.78286 -5.36486,-3.98819 -8.78266,-8.41189 -10.7825,-13.95591 -1.19619,-3.31612 -1.20513,-4.33425 -0.0658,-7.49273 0.49597,-1.374949 1.25406,-4.125954 1.68464,-6.113346 1.03056,-4.756606 1.25514,-5.284749 3.09673,-7.282645 l 1.56387,-1.696591 -0.1634,-8.611613 c -0.13797,-7.271523 -0.26256,-8.762967 -0.8007,-9.584263 -0.79967,-1.220444 -0.82058,-4.224598 -0.0685,-9.843917 0.90892,-6.791458 0.50222,-18.825305 -0.75684,-22.393864 -1.58462,-4.491202 -8.16214,-11.06809 -15.24329,-15.24179 -3.34762,-1.973115 -5.73608,-3.608176 -8.84478,-6.054828 -8.6838,-6.8344333 -17.98356,-7.4897476 -28.79258,-2.028887 -8.13779,4.111318 -17.82568,13.567015 -21.45649,20.942235 -1.71679,3.487283 -2.40022,7.661762 -2.11544,12.921365 0.37749,6.972224 3.00001,18.053201 5.74537,24.276099 1.85375,4.201872 1.88086,4.328296 0.92811,4.328296 -1.09982,0 -2.29503,2.063544 -2.28895,3.951923 0.004,1.141157 0.54201,2.446681 2.22449,5.394616 1.22081,2.139014 3.02617,5.836772 4.01192,8.217237 0.98575,2.380465 2.27202,4.841689 2.85837,5.469386 1.07198,1.147563 1.33183,1.183104 3.56058,0.487031 0.71071,-0.221966 0.90589,0.01069 1.63214,1.945577 1.88975,5.034649 3.48214,12.230499 3.5264,15.935329 0.0507,4.24492 -0.35697,5.5986 -2.60612,8.65386 -3.25633,4.42341 -8.12598,7.15117 -23.87203,13.37207 -13.43401,5.30746 -20.53621,8.93887 -30.486265,15.58785 -7.674401,5.12831 -11.284927,8.65843 -13.387658,13.08951 -3.031765,6.38884 -3.475517,10.72996 -3.915995,38.30907 -0.191758,12.00632 -0.546965,25.22161 -0.789342,29.36731 -0.623395,10.66264 -0.268388,40.06497 0.544222,45.07365 1.380177,8.50701 6.138683,20.78586 11.007257,28.40313 1.142098,1.7869 1.393229,1.97596 2.624682,1.97596 0.748965,0 2.38814,-0.26596 3.642616,-0.59103 1.84385,-0.47779 11.310543,-2.03509 12.412263,-2.04185 0.4975,-0.003 0.29877,7.59251 -0.29538,11.28947 -0.31605,1.96655 -1.15253,5.77734 -1.85885,8.46841 -2.41536,9.20245 -3.08499,14.18027 -3.59477,26.72253 -0.20193,4.96813 -0.62626,11.65817 -0.94294,14.86675 -0.31668,3.20859 -0.682,10.02566 -0.81181,15.14904 l -0.23603,9.31525 H 50.374955 0 Z m 322.3805,13.73937 c -0.21639,-1.73192 -0.13583,-2.24047 0.49528,-3.12678 0.41453,-0.58216 1.0378,-1.76852 1.38504,-2.63636 0.34724,-0.86783 0.7642,-1.57788 0.92658,-1.57788 0.59702,0 0.72858,-1.1924 0.22018,-1.99568 -0.28792,-0.45492 -0.8725,-2.23177 -1.29908,-3.94855 -0.42657,-1.71679 -1.10816,-3.58848 -1.51463,-4.15932 -1.06978,-1.50236 -4.31869,-3.15507 -6.3724,-3.24161 -0.94454,-0.0398 -1.78369,-0.27141 -1.86478,-0.5147 -0.25068,-0.75201 -1.41474,-0.48971 -2.37145,0.53436 -1.25673,1.34521 -2.79487,2.08224 -4.63015,2.21862 -1.4703,0.10925 -1.56358,0.18854 -1.78163,1.51448 -0.15525,0.94401 -0.67056,1.80271 -1.58402,2.63955 -1.52551,1.39754 -2.0207,2.75415 -1.41706,3.88206 0.22461,0.41969 0.41048,2.00212 0.41304,3.51651 0.005,2.70729 0.0258,2.76713 1.26396,3.56879 0.77033,0.49874 1.34305,1.22944 1.475,1.88187 0.11863,0.58659 0.57266,1.44761 1.00894,1.91337 0.75051,0.80122 1.09156,0.84827 6.3301,0.8733 3.04526,0.0145 5.87558,0.17201 6.28959,0.34992 0.41401,0.17791 1.32271,0.33537 2.01933,0.34992 l 1.26658,0.0265 -0.25842,-2.06832 z M 300.44186,140.5996 c -0.14887,-1.32077 -0.0213,-1.88187 0.61079,-2.68537 0.43945,-0.55866 0.79899,-1.26317 0.79899,-1.56558 0,-0.3024 0.27341,-1.01268 0.60759,-1.57839 0.55921,-0.94667 0.55921,-1.12214 0,-2.20353 -0.33418,-0.64623 -0.60759,-1.69691 -0.60759,-2.33486 0,-2.70512 -2.08039,-5.27126 -4.8859,-6.0267 -0.80537,-0.21687 -1.60217,-0.36291 -1.77066,-0.32454 -0.1685,0.0384 -0.75137,-0.0558 -1.29529,-0.20939 -0.75247,-0.21241 -1.47969,-0.002 -3.04142,0.87919 -1.12886,0.6371 -2.48338,1.15836 -3.01004,1.15836 -0.76494,0 -1.00342,0.22937 -1.18563,1.14041 -0.12544,0.62723 -0.82408,1.7541 -1.55254,2.50416 -0.72845,0.75007 -1.32446,1.4031 -1.32446,1.45118 0,0.0481 0.25301,0.57255 0.56225,1.16548 0.30923,0.59293 0.56328,1.71862 0.56456,2.50154 0.003,1.78853 0.67741,3.38384 2.33127,5.51382 l 1.2952,1.66808 4.11581,-0.0682 c 2.26369,-0.0375 4.70859,0.0837 5.43311,0.26936 2.47852,0.63501 2.56198,0.59051 2.35396,-1.25507 z M 127.77884,121.73238 c 0,-1.65212 0.17804,-2.46143 0.64447,-2.92959 0.35446,-0.35578 0.81317,-1.25787 1.01937,-2.00465 0.2062,-0.74678 0.74854,-1.7555 1.20521,-2.2416 0.79723,-0.84862 0.80378,-0.91313 0.16435,-1.61969 -0.37817,-0.41787 -0.89033,-2.02881 -1.18516,-3.72775 -0.75225,-4.33481 -0.98129,-4.74183 -3.61915,-6.43135 -1.9788,-1.2674 -2.69113,-1.51875 -4.32295,-1.52534 -1.07456,-0.004 -2.05842,-0.17728 -2.18636,-0.38428 -0.36879,-0.59672 -0.72813,-0.46133 -2.48755,0.93728 -0.90891,0.72251 -1.91658,1.3153 -2.23927,1.31731 -0.3227,0.002 -0.91549,0.24774 -1.31731,0.54608 -0.40183,0.29834 -1.11009,0.44974 -1.57393,0.33645 -0.86789,-0.21198 -0.96888,-0.0792 -1.38244,1.81717 -0.12023,0.5513 -0.89653,1.72939 -1.72512,2.61796 -1.7041,1.82749 -1.66439,1.70244 -0.94196,2.96621 0.33441,0.58499 0.54293,2.0407 0.55122,3.84816 0.0129,2.81002 0.0492,2.92579 1.08613,3.46199 0.639,0.33044 1.51409,1.39932 2.16415,2.64339 l 1.09136,2.08863 6.02198,0.007 c 3.34741,0.004 6.27271,0.17277 6.58653,0.38067 0.31051,0.20571 0.98798,0.33014 1.5055,0.27652 0.88952,-0.0922 0.94093,-0.22223 0.94093,-2.38023 z M 337.81078,98.038729 c -0.23327,-1.867024 -0.16488,-2.189053 0.67749,-3.190158 0.51533,-0.612432 1.04688,-1.613969 1.18122,-2.22564 0.13435,-0.611672 0.48743,-1.31394 0.78464,-1.560596 0.60819,-0.504755 0.71931,-1.9027 0.19435,-2.445168 -0.1903,-0.196655 -0.7045,-1.878552 -1.14266,-3.737551 -0.43816,-1.859 -1.0422,-3.754756 -1.34231,-4.212788 -0.30012,-0.458035 -1.65469,-1.452994 -3.01017,-2.211018 -2.02714,-1.133645 -2.69688,-1.334628 -3.774,-1.132557 -0.99467,0.186602 -1.36325,0.105607 -1.53305,-0.336873 -0.34746,-0.905469 -1.14377,-0.696536 -2.69842,0.707996 -0.78566,0.709792 -1.88864,1.406026 -2.45107,1.547189 -0.56243,0.141159 -1.11568,0.407263 -1.22945,0.591336 -0.11376,0.184073 -0.78963,0.334679 -1.50194,0.334679 -1.18212,0 -1.29509,0.0965 -1.29509,1.10623 0,0.749773 -0.48511,1.666729 -1.5055,2.845693 -1.4515,1.677083 -1.92916,3.269283 -1.12912,3.763736 0.20701,0.127937 0.37638,1.54571 0.37638,3.150608 0,2.768341 0.0547,2.958474 1.06747,3.707209 0.5871,0.434068 1.47629,1.744465 1.97596,2.911991 l 0.90849,2.122778 4.70467,-0.219535 c 2.58757,-0.120745 5.55151,-0.06427 6.58654,0.125509 1.03503,0.189775 2.45183,0.364961 3.14845,0.389311 l 1.26658,0.0443 z M 246.14834,85.465524 c 0,-0.191213 -0.19769,-1.204095 -0.4393,-2.25085 -0.42241,-1.829966 -0.40168,-1.938064 0.53878,-2.809651 0.53795,-0.498556 1.16089,-1.585361 1.38432,-2.415122 0.22344,-0.829761 0.65846,-1.605441 0.96672,-1.723731 0.75158,-0.288411 0.70614,-0.922928 -0.19227,-2.685129 -0.41402,-0.812059 -0.75275,-1.912922 -0.75275,-2.446364 0,-1.196864 -1.17378,-4.604284 -1.87863,-5.453582 -0.86535,-1.042683 -4.13379,-2.503581 -5.92837,-2.649817 -0.92827,-0.07564 -2.0116,-0.430594 -2.4074,-0.788785 -0.68948,-0.623971 -0.77901,-0.593267 -2.1373,0.73307 -0.77972,0.761378 -1.62286,1.384325 -1.87364,1.384325 -0.25078,0 -1.08653,0.337965 -1.85722,0.751031 -0.7707,0.413066 -1.70161,0.655707 -2.06869,0.539197 -0.54448,-0.172809 -0.66743,0.01099 -0.66743,0.997713 0,0.91437 -0.41333,1.651419 -1.69368,3.020225 -1.85847,1.986854 -1.96722,2.371632 -1.1204,3.964058 0.42651,0.802029 0.51219,1.675257 0.33466,3.410547 -0.23789,2.325183 -0.23481,2.334822 0.9828,3.075296 0.84137,0.511669 1.46999,1.366917 2.02021,2.748547 l 0.79877,2.005748 6.64792,0.188187 c 3.65636,0.103502 6.77442,0.315213 6.92903,0.470467 0.40235,0.404056 2.41387,0.349576 2.41387,-0.06538 z"
         id="path878" />
      <path
         style="opacity:0.394402;fill:#ff0000;stroke-width:0.376374"
         d="M 0,195.71428 V 0 H 179.90659 359.81317 V 195.71428 391.42856 H 342.1859 c -9.69499,0 -33.89744,-0.1125 -53.7832,-0.24999 l -36.15594,-0.25002 -0.21678,-1.34957 c -0.34449,-2.14476 -3.15079,-12.17004 -4.96927,-17.75235 l -1.66511,-5.11154 v -7.02499 -7.02499 l 2.07633,-7.81127 c 4.09695,-15.41293 5.27832,-22.67493 5.8322,-35.8511 0.19579,-4.65763 0.35952,-8.51075 0.36383,-8.5625 0.004,-0.0518 3.73395,-0.0941 8.28808,-0.0941 4.55412,0 8.28919,-0.0423 8.30016,-0.0941 0.011,-0.0517 0.22976,-1.37298 0.48621,-2.93605 0.36258,-2.20998 0.82853,-3.42358 2.09533,-5.45742 5.47103,-8.7837 9.60835,-15.71344 10.57992,-17.72065 1.38887,-2.86935 3.5514,-10.63231 4.51193,-16.19672 1.16993,-6.7775 1.60381,-20.65129 1.38995,-44.44521 -0.21707,-24.1507 -0.036,-22.32968 -3.62106,-36.41221 -1.21207,-4.76113 -2.74696,-10.94307 -3.41086,-13.73764 -0.6639,-2.79458 -1.77593,-6.27893 -2.47116,-7.743 -2.36095,-4.97188 -7.80242,-9.45499 -17.10768,-14.09467 -2.58757,-1.29019 -6.99114,-3.65683 -9.78571,-5.2592 -7.80467,-4.47511 -8.58275,-4.7989 -14.9465,-6.21989 -9.5842,-2.1401 -12.86492,-3.12503 -16.88206,-5.0683 -8.71852,-4.21753 -15.0781,-10.64557 -17.71244,-17.9031 -1.03631,-2.85499 -1.12907,-5.05095 -0.31113,-7.365754 0.32006,-0.9058 1.09227,-3.666911 1.71602,-6.135797 1.30547,-5.167185 1.45765,-5.511006 3.36427,-7.600824 l 1.41527,-1.551254 -0.19088,-7.858086 c -0.10498,-4.321951 -0.37504,-8.535563 -0.60013,-9.363585 -0.46908,-1.725534 -0.49084,-6.568325 -0.0779,-17.338546 0.52027,-13.570436 -0.38586,-17.193456 -5.68818,-22.743333 -3.59104,-3.758698 -6.23531,-5.869429 -11.62341,-9.278124 -2.27706,-1.440547 -5.57974,-3.695101 -7.33928,-5.01012 -3.78665,-2.8300021 -8.30044,-5.0416378 -11.59927,-5.6833296 -5.4527,-1.0606645 -13.00981,0.5290989 -19.15079,4.0286886 -10.34999,5.898199 -20.10815,17.050812 -21.76661,24.877111 -1.56316,7.376551 0.52022,20.886478 4.92812,31.956958 1.81755,4.564817 1.92411,5.024486 1.16474,5.024486 -0.94627,0 -1.86071,1.486081 -2.02414,3.289457 -0.15078,1.663831 0.1456,2.42234 4.15621,10.637029 2.37521,4.864994 4.6681,9.161766 5.09531,9.548384 0.62053,0.561572 1.10913,0.653103 2.42943,0.455111 l 1.65268,-0.247834 0.7934,2.178845 c 2.17048,5.960557 3.67099,13.797727 3.36694,17.585527 -0.26228,3.26745 -1.44004,5.53609 -4.40831,8.49143 -3.12432,3.11072 -8.69648,6.01863 -20.90557,10.90986 -10.73359,4.30012 -20.7052,9.14231 -27.05353,13.13713 -15.761518,9.91828 -19.601448,15.10589 -20.916196,28.25707 -1.050143,10.50438 -2.269853,83.39862 -1.5841,94.67145 0.430387,7.07496 1.46835,11.97065 3.98985,18.81868 1.693565,4.59948 6.113568,13.72198 7.70468,15.90178 1.429648,1.9586 1.753901,1.98186 8.984148,0.64446 2.839988,-0.52532 6.112018,-1.05489 7.271168,-1.17682 2.10249,-0.22116 2.10811,-0.21899 2.33216,0.90126 0.27421,1.37103 -0.30935,9.46702 -0.86493,11.99961 -0.22196,1.01178 -1.06686,4.63417 -1.87756,8.04976 -2.01971,8.50933 -2.51282,12.37241 -3.19484,25.02885 -0.32349,6.00315 -0.74386,12.60851 -0.93415,14.67857 -0.1903,2.07005 -0.4455,6.72767 -0.56711,10.35027 -0.12162,3.6226 -0.31742,8.32256 -0.43512,10.44437 l -0.21399,3.85783 H 50.209659 0 Z m 322.61448,13.79042 c -0.10425,-1.67119 0.081,-2.43186 1.07729,-4.42291 0.66175,-1.32253 1.45102,-2.68614 1.75394,-3.03024 0.48699,-0.55321 0.43519,-0.98892 -0.44748,-3.76373 -1.81082,-5.69265 -2.09948,-6.307 -3.51123,-7.47288 -0.75968,-0.62737 -2.31277,-1.40637 -3.4513,-1.7311 -1.13853,-0.32473 -2.71072,-0.77303 -3.49376,-0.99622 -1.25217,-0.3569 -1.54692,-0.30711 -2.44642,0.41329 -2.13713,1.71158 -2.7193,2.00697 -4.44283,2.25424 -1.6413,0.23547 -1.81118,0.36298 -2.27711,1.7091 -0.27692,0.80005 -1.11833,2.1352 -1.86982,2.967 -1.27801,1.41461 -1.35015,1.62468 -1.11604,3.25003 0.13766,0.95572 0.3526,2.8938 0.47766,4.30686 0.19313,2.1823 0.36716,2.66078 1.1557,3.17746 0.51059,0.33455 1.24156,1.33896 1.62437,2.23203 0.38282,0.89306 1.08265,1.79348 1.55519,2.00092 0.71231,0.3127 7.41447,0.82309 14.03224,1.06859 l 1.50549,0.0559 z m -21.89196,-69.0336 c 0,-0.98897 0.22318,-2.1322 0.49596,-2.54052 0.27278,-0.40832 0.79104,-1.53679 1.15167,-2.50771 0.60417,-1.62654 0.60956,-1.90126 0.0686,-3.49461 -0.32291,-0.95111 -0.58711,-2.07325 -0.58711,-2.49363 0,-1.71373 -2.40175,-4.6139 -4.30117,-5.19378 -2.68943,-0.82106 -4.63954,-0.85262 -6.11985,-0.099 -0.78912,0.4017 -2.1465,0.943 -3.01642,1.20289 -1.165,0.34803 -1.67498,0.74021 -1.93591,1.48872 -0.19485,0.55892 -0.9096,1.64871 -1.58835,2.42176 -1.13645,1.29435 -1.20035,1.5 -0.80761,2.59923 0.23457,0.65652 0.54165,1.95583 0.68241,2.88735 0.28407,1.87993 1.09842,3.66078 2.58161,5.64561 l 0.98439,1.31731 5.16086,0.20443 c 2.83848,0.11244 5.62662,0.23946 6.19589,0.28228 0.99555,0.0749 1.03503,0.009 1.03503,-1.72028 z M 127.88559,122.13324 c 0.0971,-1.71251 1.74682,-5.75231 3.1855,-7.80073 0.36596,-0.52106 0.33561,-0.85627 -0.15332,-1.69368 -0.33527,-0.57423 -0.8858,-2.39174 -1.2234,-4.03891 -0.3376,-1.64718 -0.87522,-3.39382 -1.19472,-3.88143 -0.65305,-0.99669 -3.71132,-3.05311 -4.86092,-3.26856 -0.41401,-0.0776 -1.71637,-0.33477 -2.89413,-0.57152 -2.113,-0.42474 -2.16548,-0.41388 -3.95886,0.81975 -1.53242,1.05412 -2.97623,1.66699 -5.62594,2.38809 -0.23924,0.0651 -0.54658,0.62652 -0.68299,1.24759 -0.13641,0.62107 -0.94285,1.91858 -1.79208,2.88336 -1.44006,1.636 -1.51648,1.83417 -1.13451,2.94224 0.22526,0.65345 0.5278,2.45834 0.67232,4.01089 0.23734,2.54963 0.38596,2.94298 1.53583,4.06472 0.70018,0.68305 1.59391,1.86863 1.98607,2.63461 l 0.71301,1.3927 6.53157,0.41587 c 9.41216,0.59929 8.7686,0.71105 8.89657,-1.54499 z M 338.04346,98.009514 c -0.098,-1.536579 0.0456,-2.257067 0.60928,-3.057316 0.40562,-0.575841 0.86444,-1.470402 1.01958,-1.987915 0.15515,-0.517514 0.53552,-1.229771 0.84527,-1.582798 0.67912,-0.774005 0.54748,-1.824257 -0.8395,-6.697422 -0.63682,-2.237492 -1.36391,-3.944057 -1.9429,-4.560278 -1.31748,-1.402161 -4.60205,-2.967194 -6.22732,-2.967194 -0.76108,0 -1.48846,-0.169368 -1.6164,-0.376374 -0.41521,-0.671834 -1.32927,-0.401722 -3.02681,0.894452 -0.9154,0.698952 -2.67502,1.588135 -3.91028,1.975962 -1.80177,0.565689 -2.29202,0.891215 -2.47902,1.64607 -0.1282,0.517513 -0.83971,1.826217 -1.58115,2.908227 l -1.34806,1.96729 0.43297,2.621694 c 0.23812,1.441929 0.43296,3.159495 0.43296,3.816809 0,0.801853 0.38704,1.635942 1.1762,2.534745 0.64691,0.736792 1.42675,1.944726 1.73298,2.6843 0.30622,0.739574 0.69591,1.514049 0.86598,1.721055 0.18578,0.226144 3.43756,0.394865 8.14683,0.422701 l 7.83762,0.04633 z M 245.95438,83.442497 c -0.21319,-1.990772 -0.14944,-2.457362 0.39784,-2.911562 0.35844,-0.297486 0.97799,-1.302039 1.37676,-2.23234 0.39878,-0.930302 0.92119,-1.812683 1.16091,-1.960843 0.32825,-0.202869 0.31843,-0.669376 -0.0398,-1.889418 -0.26161,-0.891023 -0.80085,-2.84418 -1.19833,-4.340348 -0.39747,-1.496171 -0.98022,-3.218367 -1.29502,-3.827102 -0.65053,-1.257991 -3.75329,-2.946328 -6.07359,-3.304884 -0.81076,-0.125287 -1.9414,-0.463098 -2.51254,-0.750685 -1.11433,-0.561109 -1.97303,-0.315928 -2.92939,0.836415 -0.60193,0.725287 -4.28539,2.427279 -5.25312,2.427279 -0.43601,0 -0.73797,0.39552 -0.89274,1.169351 -0.12863,0.643147 -0.93066,2.0016 -1.7823,3.018788 -1.35323,1.61628 -1.51488,2.002653 -1.28224,3.064848 0.14641,0.668481 0.34848,2.460798 0.44904,3.982924 0.16859,2.551719 0.27888,2.851828 1.41453,3.848944 0.67743,0.594791 1.51492,1.823059 1.86109,2.729488 l 0.6294,1.648049 6.85851,0.364812 c 3.77217,0.200648 7.42243,0.394552 8.11167,0.430895 l 1.25318,0.06608 z"
         id="path880" />
      <path
         style="opacity:0.394402;fill:#ff0000;stroke-width:0.376374"
         d="M 0,195.71428 V 0 h 179.90659 179.90658 v 195.72053 195.72052 l -41.307,-0.20358 c -22.71885,-0.11197 -46.93849,-0.30373 -53.82143,-0.42616 -11.37882,-0.20246 -12.51442,-0.27999 -12.51442,-0.85471 0,-1.38408 -3.64275,-14.34731 -5.81848,-20.70591 -0.87899,-2.56885 -0.95624,-3.31872 -0.95624,-9.28131 v -6.48667 l 2.65895,-10.46084 c 3.85844,-15.1799 4.90945,-22.08073 5.47543,-35.95145 l 0.25546,-6.26061 1.6914,-0.23184 c 0.93027,-0.1275 4.69687,-0.23183 8.37023,-0.23183 h 6.67882 l 0.26358,-2.16414 c 0.35269,-2.89577 1.05482,-4.39274 5.40636,-11.52663 5.72283,-9.38199 6.39521,-10.53938 7.40808,-12.75179 2.11548,-4.62081 4.42383,-14.17857 5.15802,-21.35689 0.68905,-6.73694 0.68086,-57.91965 -0.01,-62.6227 -0.89492,-6.09198 -7.4,-31.22382 -8.89886,-34.37998 -2.44638,-5.1514 -6.85765,-8.7625 -17.70882,-14.49658 -3.31209,-1.75021 -8.03703,-4.31152 -10.49987,-5.69181 -6.40567,-3.59003 -7.04001,-3.82716 -16.34914,-6.11174 -4.62368,-1.13471 -9.70473,-2.57449 -11.2912,-3.19952 -11.72632,-4.61979 -21.13865,-14.95796 -21.13865,-23.21791 0,-1.21033 0.24542,-2.950585 0.54539,-3.867236 0.29997,-0.91665 1.08757,-3.672424 1.75023,-6.123945 1.04132,-3.852361 1.43493,-4.739774 2.90018,-6.538513 l 1.69534,-2.081207 -0.24753,-7.575493 c -0.13614,-4.166524 -0.41952,-8.591707 -0.62973,-9.83374 -0.2406,-1.421555 -0.29475,-6.92973 -0.14616,-14.866757 0.25618,-13.684252 0.0328,-16.154016 -1.79144,-19.806707 -1.92819,-3.860812 -7.48094,-9.16582 -14.23837,-13.603108 -2.38056,-1.563204 -5.93729,-3.985208 -7.90385,-5.382232 -6.59167,-4.6826741 -10.88912,-6.372787 -16.20411,-6.372787 -8.90302,0 -17.9117,4.441426 -26.71937,13.173077 -5.8589,5.808336 -9.04465,10.672254 -10.37272,15.836828 -0.50311,1.956456 -0.58064,3.529449 -0.40666,8.251083 0.29181,7.919789 1.83005,15.013344 5.20281,23.992587 1.59417,4.244151 1.72819,4.988181 0.89846,4.988181 -0.8262,0 -1.70335,1.995985 -1.70335,3.876031 0,1.35231 0.78272,3.235424 4.27764,10.291421 2.35269,4.749937 4.56658,8.925196 4.91974,9.278355 0.42984,0.429845 1.24947,0.642104 2.47942,0.642104 h 1.83731 l 1.12972,3.526768 c 1.66876,5.20953 2.66987,10.62128 2.66568,14.4101 -0.005,4.30457 -0.95272,6.46561 -4.2476,9.68303 -3.63559,3.55012 -6.43625,4.96083 -26.79955,13.49904 -11.65821,4.88822 -26.031169,13.14401 -32.036654,18.40176 -6.323423,5.53612 -8.827881,10.47125 -9.904776,19.51776 -0.969516,8.14444 -2.099318,61.63168 -1.796718,85.06044 0.204514,15.83456 0.354443,17.38719 2.344149,24.2761 1.886614,6.53196 7.343388,18.60037 9.711926,21.47925 1.32348,1.60865 2.033261,1.63626 9.613023,0.374 5.17456,-0.86173 7.12083,-1.09905 8.23732,-1.0044 0.32668,0.0277 0.46848,0.81634 0.46395,2.5804 -0.0116,4.53028 -0.68766,9.17743 -2.42753,16.6872 -2.24063,9.67124 -2.70574,13.21586 -3.59595,27.40477 -0.4104,6.54149 -0.90602,14.43413 -1.10137,17.53921 -0.19535,3.10509 -0.46226,8.77892 -0.59313,12.60852 -0.13086,3.8296 -0.32085,7.2593 -0.42219,7.62156 -0.1743,0.62305 -2.887853,0.65866 -50.216583,0.65866 H 0 Z m 322.92856,13.50002 c 0,-1.97963 0.21924,-2.71915 1.54232,-5.20228 l 1.54231,-2.89462 -1.16407,-3.77225 c -1.76928,-5.73347 -3.18354,-7.35768 -7.50026,-8.61369 -3.88222,-1.12958 -4.22276,-1.11213 -6.35968,0.32591 -1.07589,0.72402 -2.64499,1.43278 -3.4869,1.57501 -1.31378,0.22197 -1.64308,0.4804 -2.32346,1.82342 -0.43601,0.86064 -1.30772,2.2191 -1.93714,3.01881 l -1.14441,1.454 0.43542,4.16441 c 0.36856,3.5249 0.57391,4.31306 1.33728,5.13253 0.49602,0.53247 1.35294,1.69603 1.90426,2.58569 0.55132,0.88966 1.20689,1.69505 1.4568,1.78975 0.74478,0.28222 8.08564,0.81235 12.02789,0.86861 l 3.66964,0.0524 z m -21.9529,-69.10922 c 0.21804,-1.19028 0.78416,-3.03476 1.25803,-4.09882 l 0.86158,-1.93468 -0.70036,-3.08561 c -0.96621,-4.25693 -2.55144,-6.26018 -5.63024,-7.11492 -2.35874,-0.65483 -3.67539,-0.50759 -6.9609,0.77846 -2.58175,1.01057 -3.17717,1.40975 -3.78942,2.54052 -0.39951,0.73786 -1.09766,1.80759 -1.55145,2.37719 l -0.82506,1.03562 0.85669,3.55363 c 0.62468,2.59119 1.23402,4.09456 2.24987,5.55092 l 1.39316,1.99728 2.99921,0.21326 c 1.64956,0.11729 4.44894,0.24432 6.22082,0.28228 l 3.22162,0.069 z M 128.01899,122.32142 c 0.28279,-1.93639 1.526,-5.2442 2.66666,-7.09518 l 0.77733,-1.26139 -0.85569,-2.87872 c -0.47063,-1.58329 -1.09883,-3.67532 -1.39602,-4.64894 -0.90869,-2.97703 -3.47425,-4.79967 -7.83078,-5.56323 l -2.63461,-0.46176 -2.82281,1.50179 c -1.55254,0.82598 -3.2865,1.60875 -3.85325,1.73948 -0.71708,0.16541 -1.2765,0.72 -1.83955,1.82367 -0.44501,0.87228 -1.31483,2.21528 -1.93294,2.98443 -1.10827,1.37909 -1.11815,1.43132 -0.71315,3.77133 0.22587,1.30507 0.52014,3.11876 0.65392,4.03041 0.17147,1.16844 0.72035,2.24329 1.86012,3.64262 0.88927,1.09179 1.7232,2.32011 1.85316,2.72959 0.20929,0.65939 0.6973,0.7721 4.26815,0.98576 2.21751,0.13269 4.45526,0.29573 4.97277,0.36233 0.51752,0.0666 2.20958,0.10092 3.76015,0.0763 l 2.8192,-0.0448 z M 338.35988,98.051552 c 0,-1.622931 0.29832,-2.666728 1.39644,-4.885992 1.37498,-2.778782 1.38956,-2.855028 0.94798,-4.960236 -0.82204,-3.919107 -2.0609,-7.2752 -3.05105,-8.265349 -1.26007,-1.260072 -3.59657,-2.461073 -5.50354,-2.82891 -0.82802,-0.159718 -1.96682,-0.403078 -2.53067,-0.5408 -0.78631,-0.192064 -1.43972,0.02416 -2.80435,0.928069 -0.97854,0.648161 -2.7428,1.529835 -3.92058,1.95927 -1.80465,0.65801 -2.24261,1.005233 -2.78496,2.207962 -0.35396,0.784942 -1.12544,2.15504 -1.7144,3.044663 -0.58895,0.889626 -1.01239,1.713437 -0.94096,1.830696 0.0714,0.117255 0.32327,1.809051 0.55966,3.759547 0.36991,3.052198 0.60381,3.786424 1.67859,5.269231 0.68685,0.94758 1.48433,2.223818 1.7722,2.83608 0.28871,0.614069 0.94528,1.230087 1.46432,1.373884 0.51751,0.143376 4.20127,0.277563 8.18613,0.298193 l 7.24519,0.0375 z M 246.21619,83.649721 c -0.10787,-1.940545 0.0384,-2.452944 1.4114,-4.945666 0.84246,-1.529458 1.53174,-3.028498 1.53174,-3.331197 0,-0.971585 -2.29863,-8.536642 -2.85936,-9.410473 -0.88108,-1.37306 -4.32888,-2.88053 -9.40085,-4.110305 -0.496,-0.120258 -1.2012,0.164408 -1.93327,0.780407 -1.17964,0.992603 -4.83841,2.846239 -5.63104,2.852845 -0.2427,0.0019 -0.62503,0.554123 -0.84962,1.226891 -0.22459,0.672768 -0.99988,1.966865 -1.72287,2.875769 -1.47466,1.853866 -1.43594,1.587367 -0.92943,6.396289 0.34363,3.262636 0.47181,3.642792 1.6786,4.978569 0.71861,0.795413 1.55582,2.042764 1.86047,2.771893 0.39238,0.939094 0.80646,1.339657 1.41995,1.373576 0.47633,0.02635 2.7291,0.166846 5.00616,0.312243 2.27706,0.145397 5.57974,0.293527 7.33928,0.329177 l 3.19918,0.06481 z"
         id="path882" />
      <path
         style="opacity:0.394402;fill:#ff0000;stroke-width:0.376374"
         d="M 0,195.75357 V 0 h 179.90659 179.90658 v 195.73219 195.7322 l -19.28914,-0.20486 c -10.60903,-0.11269 -33.60076,-0.3069 -51.09272,-0.43155 -17.49196,-0.12466 -32.98333,-0.33689 -34.42527,-0.47167 l -2.62169,-0.24506 -0.33345,-1.50549 c -0.59544,-2.68837 -3.64673,-13.44222 -5.01923,-17.68956 -1.25404,-3.88075 -1.34969,-4.52916 -1.52681,-10.35028 l -0.18895,-6.21016 2.1367,-8.46841 c 4.21717,-16.71396 5.28742,-22.95306 5.87526,-34.25 0.22082,-4.24361 0.4807,-8.41013 0.57752,-9.25894 l 0.17604,-1.54329 3.99585,-0.24449 c 2.19772,-0.13446 5.90957,-0.24449 8.24855,-0.24449 h 4.25269 l 0.22456,-1.4114 c 0.55409,-3.48242 1.39568,-5.25557 6.71878,-14.15579 6.10974,-10.21547 7.46938,-13.23295 9.25201,-20.53308 2.45799,-10.06585 2.45209,-9.9617 2.45345,-43.31456 l 10e-4,-30.29807 -1.03794,-4.51649 c -1.7461,-7.59844 -6.26823,-25.02876 -7.27177,-28.02908 -0.52127,-1.55845 -1.44726,-3.61501 -2.05776,-4.57011 -1.38173,-2.16169 -4.71435,-5.35516 -7.68465,-7.36381 -2.38721,-1.61433 -21.99098,-12.42069 -25.24996,-13.91875 -1.05361,-0.48431 -5.51409,-1.8128 -9.91217,-2.9522 -12.34655,-3.19858 -15.46333,-4.41814 -20.54031,-8.03724 -2.87145,-2.04689 -7.24943,-6.3844 -8.93176,-8.8492 -3.82231,-5.60008 -4.25252,-9.18792 -2.03034,-16.932486 1.73712,-6.05406 2.16936,-7.084014 3.96316,-9.443523 l 1.4451,-1.900848 -0.34232,-6.586539 C 209.38945,73.910368 209.10105,63.070808 208.93682,53.445053 208.6886,38.895864 208.53764,35.681074 208.04184,34.386881 205.82886,28.610249 201.55863,24.406827 189.6923,16.324454 176.93157,7.6328855 175.05596,6.7880299 168.50149,6.7791922 c -9.0726,-0.012232 -17.85704,4.3592008 -26.7997,13.3364428 -6.13002,6.153726 -9.10802,10.753863 -10.34527,15.980437 -0.69114,2.919611 -0.29301,12.644236 0.7293,17.813644 0.84742,4.285123 2.21246,8.982002 4.12452,14.191853 1.39106,3.790255 1.42749,4.394346 0.31919,5.291794 -0.7288,0.590146 -0.84684,1.044501 -0.84684,3.259508 0,2.518858 0.0865,2.747151 4.05585,10.699489 2.23072,4.469143 4.39676,8.491636 4.81343,8.938873 0.57441,0.616561 1.19721,0.813159 2.576,0.813159 h 1.81844 l 1.17265,4.046018 c 1.80454,6.22625 2.368,9.35732 2.42138,13.45536 0.0595,4.56986 -0.59016,6.30112 -3.53179,9.41146 -3.42673,3.62326 -6.17407,5.09958 -22.17074,11.91373 -21.40268,9.11696 -36.064596,17.97114 -41.52574,25.07699 -4.516189,5.87631 -5.605942,10.54215 -6.259973,26.80248 -1.09445,27.20983 -1.53107,78.47668 -0.744697,87.44048 0.214717,2.44756 0.813799,6.08897 1.33129,8.09204 1.819123,7.04133 7.841993,20.71619 10.414581,23.64621 1.394623,1.58839 2.376081,1.61796 10.651559,0.32087 3.29834,-0.51698 6.28571,-0.9404 6.63859,-0.94093 0.42638,-7.6e-4 0.71826,0.40934 0.87013,1.22224 0.34543,1.84885 -0.47927,8.86208 -1.73703,14.77171 -2.09502,9.84353 -2.62548,12.77779 -3.16287,17.49566 -0.63768,5.59838 -1.9084,24.94408 -2.61733,39.84675 -0.32738,6.88192 -0.66099,10.82447 -0.939501,11.10302 -0.319195,0.31921 -13.388516,0.46671 -50.094391,0.56528 L 0,391.50715 Z m 323.04953,13.30725 c 0.16868,-1.80633 0.60051,-3.16656 1.62304,-5.11242 1.3755,-2.61759 1.38705,-2.67599 0.90939,-4.59586 -0.26609,-1.06952 -0.98798,-3.17301 -1.6042,-4.67443 -1.43502,-3.49644 -3.07616,-4.96087 -6.79455,-6.06297 -3.52556,-1.04495 -4.05261,-1.02022 -6.19886,0.2908 -0.98638,0.60253 -2.51369,1.28665 -3.39402,1.52027 -1.06337,0.2822 -1.8065,0.76721 -2.21406,1.44502 -0.33741,0.56114 -1.24145,1.95177 -2.00898,3.0903 -1.51314,2.24454 -1.50966,2.20825 -0.7342,7.66173 0.3043,2.14006 0.65455,2.98372 2.05137,4.94118 0.92642,1.29826 1.94145,2.57381 2.25562,2.83455 0.69096,0.57345 5.16506,0.99579 11.32348,1.06889 l 4.55615,0.0541 z m -21.96441,-68.76756 c 0.22878,-1.08677 0.80859,-2.93487 1.28847,-4.10689 l 0.87251,-2.13093 -0.7969,-3.1749 c -1.25006,-4.98034 -3.13549,-6.90381 -7.17606,-7.32083 -1.45743,-0.15042 -2.60905,0.01 -4.38004,0.60992 -3.51789,1.19179 -4.04134,1.56973 -5.79895,4.18697 l -1.59551,2.37586 0.90738,3.41605 c 0.5036,1.89589 1.47406,4.33723 2.18078,5.4861 1.23855,2.01342 1.32835,2.0761 3.28216,2.29099 1.10483,0.12151 3.98685,0.24854 6.40448,0.28228 l 4.39571,0.0614 z M 128.42756,121.47193 c 0.35679,-1.49933 1.21418,-3.83764 1.90531,-5.19624 1.18327,-2.32603 1.22894,-2.55665 0.78256,-3.95192 -0.26072,-0.81496 -0.8442,-2.72937 -1.29662,-4.25426 -1.23699,-4.16924 -3.06448,-5.93626 -7.3092,-7.06736 -2.92289,-0.77886 -3.68938,-0.64391 -7.91249,1.39308 -3.13619,1.51272 -4.07252,2.15014 -4.56123,3.10508 -0.33822,0.66088 -1.13248,1.9271 -1.76503,2.81381 l -1.1501,1.6122 0.6324,3.93142 c 0.57199,3.55597 0.78563,4.14316 2.237,6.14845 0.88254,1.21935 1.77398,2.50104 1.98099,2.84819 0.42573,0.71396 4.93545,1.20601 11.85577,1.29359 l 3.95192,0.05 z M 338.46404,98.085794 c 0.11521,-1.116275 0.75157,-3.264717 1.41414,-4.774314 1.40195,-3.194223 1.37927,-4.329136 -0.18522,-9.267685 -1.40359,-4.430651 -3.39694,-6.124946 -8.55711,-7.273345 l -2.14299,-0.476922 -4.13966,2.03112 c -3.87022,1.898914 -4.20618,2.153609 -5.1615,3.912987 -0.56201,1.035027 -1.33603,2.334449 -1.72006,2.887602 -0.66512,0.958048 -0.67058,1.189811 -0.11517,4.887689 0.50788,3.381412 0.78323,4.19806 2.13545,6.333552 2.52699,3.990742 1.90065,3.768902 10.64134,3.768902 h 7.62131 z M 246.47928,83.639446 c -0.0409,-1.807452 0.1808,-2.63034 1.31546,-4.883459 0.75052,-1.490349 1.36459,-3.109403 1.36459,-3.597899 0,-0.488495 -0.59711,-2.773873 -1.32692,-5.078616 -1.10914,-3.502713 -1.52609,-4.341932 -2.54052,-5.113502 -1.4044,-1.068186 -4.12731,-2.184164 -6.95522,-2.85059 -1.92574,-0.45382 -2.02501,-0.435874 -3.76496,0.680649 -0.98289,0.63072 -2.76039,1.577209 -3.95,2.103311 -1.18961,0.526103 -2.16346,1.170394 -2.16412,1.431763 -7.6e-4,0.261369 -0.6776,1.491422 -1.5043,2.733455 -1.65457,2.485816 -1.77357,3.312408 -1.12375,7.805868 0.29891,2.066916 0.66343,2.946434 1.96851,4.749655 0.88092,1.217158 1.78722,2.527891 2.01399,2.912744 0.46359,0.786726 3.6515,1.107908 12.10395,1.219477 l 4.61243,0.06088 z"
         id="path884" />
    </g>
  </g>
</svg>
