<?xml version="1.0" encoding="UTF-8" standalone="no"?>
<!-- Created with Inkscape (http://www.inkscape.org/) -->

<svg
   version="1.1"
   id="svg629"
   width="1346"
   height="1027"
   viewBox="0 0 1346 1027"
   sodipodi:docname="maskot_funny.svg"
   inkscape:version="1.2.2 (732a01da63, 2022-12-09)"
   xmlns:inkscape="http://www.inkscape.org/namespaces/inkscape"
   xmlns:sodipodi="http://sodipodi.sourceforge.net/DTD/sodipodi-0.dtd"
   xmlns="http://www.w3.org/2000/svg"
   xmlns:svg="http://www.w3.org/2000/svg">
  <defs
     id="defs633">
    <clipPath
       clipPathUnits="userSpaceOnUse"
       id="clipPath1942">
      <g
         inkscape:label="Clip"
         id="use1944"
         style="fill:#b13a8c;fill-opacity:1" />
    </clipPath>
  </defs>
  <sodipodi:namedview
     id="namedview631"
     pagecolor="#ffffff"
     bordercolor="#000000"
     borderopacity="0.25"
     inkscape:showpageshadow="2"
     inkscape:pageopacity="0.0"
     inkscape:pagecheckerboard="0"
     inkscape:deskcolor="#d1d1d1"
     showgrid="false"
     inkscape:zoom="0.5"
     inkscape:cx="142"
     inkscape:cy="202"
     inkscape:window-width="2160"
     inkscape:window-height="1330"
     inkscape:window-x="-12"
     inkscape:window-y="-12"
     inkscape:window-maximized="1"
     inkscape:current-layer="g635"
     showguides="false" />
  <g
     inkscape:groupmode="layer"
     inkscape:label="Image"
     id="g635">
    <g
       id="g18207">
      <path
         id="Path-2"
         style="display:inline;fill:#ba3d93;fill-opacity:1;stroke-width:0.989915"
         d="M 660.84767,23.688864 213.37206,182.42056 277.43292,789.09347 660.84767,1002.5282 Z"
         inkscape:label="path3421" />
      <path
         id="polygon16"
         style="fill:#b13a8c;fill-opacity:1;display:inline"
         d="M 499,11 955.96252,169.6195 890.54351,775.86361 499,989.14752 Z"
         inkscape:label="path3420"
         transform="matrix(0.97923919,0,0,1.0007073,170.2856,12.670273)" />
    </g>
    <g
       id="g18184"
       inkscape:label="g18184"
       style="fill:#fdfdfd;fill-opacity:1"
       transform="translate(0,40)">
      <path
         style="fill:#fdfdfd;fill-opacity:1;stroke-width:1.15767"
         d="m 666.62961,669.83486 c -14.03245,-5.93447 22.08279,-17.82789 3.85213,-2.07364 -1.06577,1.63711 -1.84248,7.58762 -3.85213,2.07364 z m 15.74239,-6.67872 c -2.01502,-10.45386 17.07254,-19.43098 4.38819,-3.61769 0.0818,2.97009 -0.78529,7.64426 -4.38819,3.61769 z m 142.17874,-2.3266 c 3.30721,-10.26537 2.95293,7.60825 0,0 z m -126.93147,-6.0519 c 4.92641,-10.67309 6.43356,-26.98336 -8.3957,-13.16033 -9.43841,10.7865 -23.59242,4.14715 -5.2307,-2.5903 10.33649,-4.09701 40.99325,-26.72292 20.91726,-32.46366 -4.90084,-11.94229 -23.3798,13.04353 -11.32191,16.06691 -9.52453,1.12672 -31.13028,24.94269 -29.46278,18.64571 14.49596,-17.95414 27.45838,-36.00904 33.5251,-58.32244 11.51849,-18.72218 24.03261,-36.70082 31.61458,-57.80419 4.79941,-8.75461 11.30413,-28.65603 -0.80607,-9.64768 -5.5465,20.69765 -25.6957,17.97837 -40.19653,25.72474 -8.13275,15.37371 -11.42278,-33.28541 -17.11189,-8.66902 -2.4237,-16.62313 -50.87924,5.62804 -32.35455,16.83337 3.4427,11.11758 30.9779,-4.03246 7.64106,7.0847 -13.78403,4.70309 -15.06591,2.67345 -13.24915,-9.62207 -7.5362,-22.00151 -42.08239,-2.39189 -43.99194,-15.15342 18.05546,-8.68482 47.07267,-6.25914 59.05187,-20.23741 -29.00964,2.70157 -57.33956,9.94426 -85.75659,15.891 -41.42148,3.19841 -82.57036,10.1463 -124.21201,9.8202 -10.88101,1.47476 -19.08312,10.14692 -10.42438,16.44021 -6.69697,2.62452 2.09494,23.38767 -5.08487,10.30168 -1.2252,10.21485 -4.10421,12.33638 -13.71125,8.84572 -0.66628,14.47957 -22.17998,27.52077 -18.64683,37.46126 14.08865,-8.59562 21.49555,-23.69915 32.30733,-32.39533 5.26745,4.80218 -14.53713,17.6802 -0.21615,20.11726 7.28471,-9.78272 1.00804,-31.30437 14.30517,-13.07766 17.76747,7.73513 2.56765,-6.67072 -3.3752,-9.66876 -10.73983,-25.56475 18.5532,-26.79616 32.7256,-15.13644 11.31962,-0.33373 19.25986,-23.24874 14.21186,-0.0748 -16.16217,7.99033 -32.19272,37.15143 -47.76582,34.61638 -9.89623,-13.41901 -10.64676,40.07637 -13.70499,26.43113 10.48652,-10.49755 -11.0528,-27.90417 -6.53209,-11.43678 8.58364,17.01696 -12.16708,-11.01052 -18.50499,4.20704 -21.90733,11.12888 5.97595,8.3873 10.69048,11.94795 -26.19328,12.0321 -51.38957,-11.08304 -49.49832,-37.70318 -4.88544,-11.77909 10.15543,-22.00441 9.66181,-34.21836 12.54477,-20.96795 44.77793,-16.58552 54.13129,-39.42942 -16.86896,-30.79337 26.30142,-32.71782 39.93557,-50.97176 37.29983,-35.15413 79.06485,-65.02817 125.30217,-87.1956 53.28342,-24.64107 112.00367,-40.56052 171.0046,-39.98427 27.83837,-2.90591 53.41519,15.02834 77.43366,19.66924 15.67145,-16.67677 37.77135,-28.62007 59.8563,-32.47797 17.00227,-1.42465 50.65495,-1.12167 40.55172,23.53329 6.8269,21.45236 3.27387,39.66804 -14.2672,53.61853 -6.56795,9.69862 -51.73388,24.41698 -23.6527,5.80588 15.71938,-18.75403 -14.4665,5.53074 -23.13336,5.35308 -14.12064,17.3531 -26.65553,-13.26708 -33.91622,-8.27119 5.78496,9.69632 20.65713,22.12136 9.14859,31.95257 17.12147,10.84282 -18.40474,13.29 -14.66709,30.36406 -21.2036,4.36867 11.15062,21.04071 1.81281,5.27228 11.45869,-20.00212 2.33476,17.1075 7.66925,25.16674 8.43547,17.7638 -26.84288,0.36205 -15.31266,14.90977 13.1875,-4.46459 8.37647,13.73864 13.96575,15.36119 -12.27619,-5.36821 -28.08996,30.75347 -17.17239,28.09136 7.82684,-6.87334 20.8349,-36.96835 15.50774,-14.35058 -10.6368,2.3026 -5.83885,39.93471 -7.96832,13.46936 -13.34454,13.73472 15.35576,24.49457 6.09334,43.35453 -6.04967,17.79995 -7.84919,36.25965 -11.07088,55.02953 -7.11333,-24.04971 6.35026,-55.49935 -10.61841,-74.81903 -20.20824,-3.91769 -33.85937,14.09154 -47.91283,28.23287 -6.14282,8.9016 -26.9031,32.62547 -11.30552,9.31397 -15.36687,2.0634 -25.47899,34.11642 -47.53636,36.12895 12.31454,-23.67954 -7.52661,1.50629 -10.97626,3.81915 z m 33.37886,-21.18251 c 8.6949,-5.60621 14.39742,-19.05152 -0.79786,-9.87795 -5.77481,11.1872 -23.51214,17.15789 -8.26572,1.23944 15.38259,-10.98022 6.33813,-13.6914 -0.81216,-21.74779 7.7866,9.51565 30.7352,-3.07061 16.05958,-8.80832 -10.14898,5.80962 -24.44993,1.16567 -18.80399,19.65457 -3.4939,9.17817 -26.60725,17.81023 -7.99608,24.25878 8.76646,10.16167 13.64158,2.10876 20.61623,-4.71873 z m 9.4079,-15.44648 c 13.52287,-2.26799 20.68605,-24.62541 3.96231,-8.9397 -1.87861,1.0632 -13.90603,13.77292 -3.96231,8.9397 z m -356.06102,-2.41309 c 6.20125,-18.0038 -39.75669,-4.2168 -10.29993,-0.21478 1.41277,4.92805 7.48433,1.42306 10.29993,0.21478 z m -10.61878,-15.77397 c 18.50359,-15.52927 -24.55488,-7.50004 -7.80558,4.78226 2.94279,-0.99161 5.33387,-2.99938 7.80558,-4.78226 z m 393.00842,-3.06465 c 10.52697,-1.99112 27.74402,-23.70698 7.36206,-13.01839 -7.19913,3.43637 -33.40054,23.76195 -7.36206,13.01839 z m -52.27517,-1.44942 c 11.49469,-10.02403 4.89906,-40.69718 -8.34926,-16.59273 -11.70633,12.19593 -13.5598,26.90244 8.34926,16.59273 z m -322.25613,-9.13226 c 9.64999,-29.56878 -24.3875,-2.21167 -5.57861,8.8347 2.15756,-2.75302 3.40559,-6.08466 5.57861,-8.8347 z m 439.48635,1.52583 c 3.42961,-14.45902 -6.18537,-21.84023 -4.52436,-2.91154 -1.08006,5.40114 4.13293,13.49088 4.52436,2.91154 z m -457.83948,-1.3821 c 13.12649,-18.09157 -34.886,0.73871 -5.47052,0.95677 l 2.75143,-0.31657 z m 354.0973,-1.05944 c 5.18813,-22.23203 -15.8752,7.58102 0,0 z m 17.52799,-11.10751 c 30.68759,-7.66954 -16.83004,-16.91892 -15.13842,2.15992 3.84488,5.79033 11.48848,1.29524 15.13842,-2.15992 z m 26.97988,2.47608 c 17.66103,0.7594 6.16835,-11.44744 -1.15768,-5.36392 -7.26491,-9.10607 -23.10151,15.48877 -2.86863,5.70436 z m -368.87504,-1.56515 c 3.58446,-9.2615 24.32084,-30.97652 1.40354,-17.33681 -17.54529,-5.39941 -7.61637,13.27557 -3.38371,19.77803 z m 395.91591,-1.92576 c 3.93073,-15.91877 -28.18756,0.96254 -6.2902,2.88173 l 3.46985,-1.00981 z m 10.80737,0.76808 c 10.59174,-10.96254 1.96125,-26.42391 4.50334,-32.91499 -14.677,-10.55302 -9.64771,21.43349 -27.87169,17.20879 8.18731,11.16906 29.7165,-9.45499 17.17969,9.43081 0.39822,2.9752 1.61913,13.07547 6.18866,6.27539 z m -40.20549,-11.20903 c 6.15979,-8.4303 39.279,-13.21512 26.19735,-22.53468 -7.86333,14.87581 -21.83318,4.63941 -10.91699,-6.48548 -2.7605,20.36947 19.08641,-5.47309 -1.98015,-6.04769 -12.86772,-11.3634 -29.25646,22.87245 -8.43131,5.28594 12.56427,-5.02618 -3.05117,18.83829 -11.6065,12.34973 11.64166,6.42058 0.003,14.01708 -1.21641,22.31729 3.27199,-0.22676 6.10933,-2.29717 7.95401,-4.88511 z m -37.63852,1.75623 c 21.91117,-18.15482 -25.60567,-16.23778 -13.79733,1.40939 4.62354,0.45086 9.38591,0.12805 13.79733,-1.40939 z m 27.81598,-5.01813 c 6.51699,-19.85416 -19.57025,9.58143 0,0 z m -6.05359,-11.55695 c 7.56713,-17.20781 -37.68086,-23.73713 -23.52839,-2.11719 6.95146,3.0415 16.63608,7.50867 23.52839,2.11719 z m 70.32873,-11.27486 c -1.3868,-13.57143 -29.26226,-8.90529 -10.29933,-0.64422 2.10698,0.25544 9.38193,5.55404 10.29933,0.64422 z m -396.34881,-0.0179 c 0.20182,-29.10164 -24.31236,9.31885 0,0 z m 336.14633,-8.40921 c 17.51575,-18.98482 -48.38103,-19.23713 -21.96861,0.73567 7.12429,1.90175 14.99701,1.69995 21.96861,-0.73567 z m 36.02264,0.2233 c 9.79687,-9.26752 -22.04516,-12.44436 -7.66324,1.38678 l 3.33053,0.18064 z m -329.16088,-5.07221 c 12.0152,-4.17693 -15.60769,-10.01128 3.98054,-9.69779 2.95377,8.25531 21.80863,8.71815 9.79362,1.42947 24.67488,-1.9476 50.65322,-13.53539 55.65005,-39.86815 10.8912,-7.43725 -0.021,-18.56985 15.32453,-19.26036 -20.82841,-7.37578 -0.71771,-25.90142 -8.43941,-36.63518 -12.23822,10.23729 -22.84524,20.7131 -12.28434,34.366 -9.1827,13.38225 -27.30916,21.50237 -28.17192,37.18839 -10.05147,-15.87484 -25.48165,13.44984 -34.23199,12.36751 -11.34887,19.16859 -2.57378,-6.87767 4.22155,-10.96875 5.78887,-25.42336 -41.63859,5.84021 -22.28304,17.8973 -3.61965,11.72735 7.37424,18.54533 16.44041,13.18156 z m -10.16907,-23.27557 c 2.25035,-12.43638 18.18812,-9.98175 3.03778,-0.66532 -0.1649,8.39897 -4.27277,2.89776 -3.03778,0.66532 z m 30.36403,0.90813 c -2.74665,-20.14791 24.81187,5.77712 7.43791,-4.12085 -6.49453,-10.3627 -0.85721,9.28549 -7.43791,4.12085 z m 338.06588,24.15946 c 7.57279,-18.9334 -27.66903,-4.29525 -6.90532,1.57473 l 4.04118,-0.47778 z m -39.20599,-8.6255 c -2.95547,-24.25557 -18.8781,19.42693 0,0 z m 21.29386,2.64652 c 8.28244,-13.28742 -23.83704,-6.05362 -16.97099,-21.72697 -8.90896,0.0179 -9.43416,-10.84079 -16.69227,-0.68088 -5.77472,5.91767 -27.04003,17.56494 -14.01657,0.85141 1.58559,-12.00881 -34.27563,7.84961 -7.39414,12.18445 12.29934,9.29418 24.08303,-4.10812 30.12113,-6.80578 10.671,4.59298 12.45248,21.96956 24.95284,16.17777 z M 577.6111,516.77281 c 10.56532,-7.16284 14.31941,-20.72778 0.5167,-7.56124 -7.84156,1.6159 -13.14644,16.20224 -0.5167,7.56124 z m -129.56217,-2.12394 c 10.13469,-22.3673 -23.84813,6.65271 0,0 z m 162.80796,-6.3904 c 3.54815,-9.09601 18.52186,-14.98238 14.06618,-2.75141 23.05186,5.59772 43.73543,-13.79726 59.90558,-18.53777 12.83614,-3.58416 26.42627,-23.2967 5.83176,-22.82597 -0.74376,12.80531 -13.51778,18.70191 -5.24393,1.80551 -7.09425,-6.38612 -37.91538,8.17805 -29.82757,26.07994 -11.61829,-20.27557 -4.11816,-0.85036 -12.19637,5.4517 0.13608,-29.54347 -56.22902,1.03845 -36.45762,13.8761 z m 71.04691,0.65549 c 15.66819,2.91659 38.14616,-31.88625 11.41563,-20.06403 -6.30343,6.37069 -51.16491,26.33756 -11.41563,20.06403 z m 132.59088,-2.15819 c -2.83764,-10.08319 -12.30407,-26.61334 0.29574,-8.68379 16.45427,20.43241 -0.12398,-28.04645 -13.94859,-12.98724 9.00662,8.08982 -12.88016,19.76335 7.41331,22.61557 1.65586,0.37489 5.18133,1.40926 6.23954,-0.94454 z m -273.52067,-1.33033 c 8.76263,-10.91353 6.79234,-10.20108 10.91224,0.26686 16.9436,-0.41481 22.67637,-37.41092 36.07817,-9.44452 13.41542,-3.83814 43.89358,-8.35271 27.19774,-26.55485 9.34106,6.90679 22.55533,6.34091 10.44935,-5.92275 4.26095,-14.7533 10.18445,20.20227 14.31218,-3.90743 6.34111,-12.99622 -9.04981,-12.04224 -15.32995,-12.83954 -3.89743,14.74557 -8.16468,-0.27683 -4.58821,-4.66335 -13.56437,1.85274 -17.46364,29.33161 -17.98587,26.11331 -14.57283,-0.8573 -25.64222,-0.1678 -32.15731,2.4515 -0.0722,4.24404 -9.1289,-5.26636 -12.51903,3.64386 0.73669,-8.2748 8.98068,-36.3643 -2.55654,-15.13299 -7.65698,8.96646 -13.15754,24.43466 -13.07087,30.38896 -9.46785,2.26871 -20.87381,24.89975 -0.7419,15.60094 z m 14.61036,-5.95365 c -6.02809,-22.17957 12.74696,-6.4755 0,0 z m 28.71745,-15.48657 c 1.57175,-14.09516 26.14555,-13.13304 9.38268,-0.0596 -4.40989,-7.83502 -3.11459,4.56572 -9.38268,0.0596 z m -7.43802,15.62938 c 14.49572,-18.77746 -28.82585,8.07425 -2.83961,1.9047 z m 263.32195,-1.69673 c -5.05439,-8.08618 -6.22814,-10.77962 -5.49455,-13.78251 -25.70588,-1.85333 -7.18729,16.72197 5.49455,13.78251 z m -70.21312,-12.28002 c 23.99361,2.36369 1.63661,-44.07299 29.03537,-29.20428 12.60699,14.17744 25.36054,-12.98758 17.89157,-15.88198 -1.61262,-8.09206 7.25633,-35.48365 -1.17315,-46.53594 -1.03798,10.63948 -11.44697,22.73727 -5.02641,27.78271 -6.68792,4.32592 -19.08733,5.60328 -14.94686,14.25659 -14.34146,-10.24728 11.2097,-26.40675 -11.88292,-36.08273 -9.62537,-2.23758 -11.70579,10.54045 -0.39346,4.97633 -8.97649,8.68632 15.63649,7.68422 -2.28884,14.16092 -21.40769,8.15719 -5.09085,15.89048 6.5811,24.19474 0.69052,15.13099 -29.56463,15.14676 -30.57221,-1.43296 0.34881,7.27682 -22.06494,12.93671 -8.00483,15.92162 3.13491,2.06989 -23.25036,4.52896 -6.21741,13.50885 6.65056,-7.0354 27.44657,-24.97806 11.94676,-4.3959 -14.31334,15.86443 -0.92509,23.99639 15.05129,18.73203 z m -0.99027,-15.89566 c -16.45298,-6.15279 19.77724,-16.76529 3.52555,-0.8387 0.0851,0.74335 -3.91384,4.04408 -3.52555,0.8387 z m -41.64462,4.78013 c 18.39687,-7.70169 -3.6005,-7.92234 -8.11766,-9.17453 6.07549,-8.41624 14.3424,-18.68133 14.88159,-25.67838 12.01814,-20.52214 -20.10249,1.87949 -27.95627,7.52545 -22.8596,9.18227 0.73371,16.76281 4.56995,29.73911 4.55605,17.61124 5.72237,-1.05799 16.62239,-2.41165 z m -80.71899,-4.47956 c 4.7736,-9.61589 3.3144,10.00034 13.13523,-1.13859 10.95845,-3.55261 11.0006,-8.92643 9.13086,-14.18552 15.01859,-5.15605 -15.19709,-16.93281 -16.63223,-1.52778 -12.72087,-1.6986 -15.9192,30.40484 -5.63386,16.85189 z m 93.46429,-13.79081 c 10.67675,-5.84161 8.60009,-27.68679 0.71966,-8.6514 -6.52129,6.21777 -17.19827,27.47775 -0.71966,8.6514 z m -44.94542,-4.95168 c 23.1591,-6.64995 -4.13227,-20.49693 -1.61999,-29.18658 11.61219,9.74621 23.8844,18.9274 31.97225,2.48779 7.40426,-3.46426 19.28723,-25.89386 3.58615,-16.99843 -12.03526,8.5236 -15.24454,-17.39609 -12.23325,-14.67621 -19.44999,-11.77394 13.72094,2.97106 19.9204,6.90785 19.87337,14.20789 22.36736,-28.93186 1.02988,-14.8298 -12.43776,6.94503 -35.5175,-11.22273 -14.77665,-18.47354 11.74535,6.39682 38.04986,-7.96497 11.3745,-7.34862 -14.4344,-7.63718 -26.55538,0.94406 -40.39925,-4.08468 -7.59254,10.58189 -34.32734,13.8668 -18.20206,26.41031 -3.74659,6.09242 -32.79808,27.77526 -16.9925,30.60133 6.83435,-11.16324 13.13022,-28.45013 29.9842,-14.89914 12.03034,9.10682 1.16786,19.37836 -1.90621,30.10283 18.58892,11.48343 -12.1308,14.80004 -19.18921,13.8888 16.80205,2.32211 3.75888,30.60684 27.45174,10.09809 z m 6.98126,-30.06797 c -5.47629,-12.96814 -6.20646,-33.53924 6.99443,-13.2555 7.86259,8.92226 20.1853,13.98279 -6.99443,13.2555 z m -5.49117,-29.30056 c -23.4007,-2.34748 5.03007,-15.71911 9.38116,-16.51917 -8.26213,3.07563 -1.82238,16.4711 -9.38116,16.51917 z m -9.84024,-20.92164 c 1.04019,-16.70602 21.69139,-10.27967 6.42268,0.20421 0.63745,0.9813 -7.19963,3.2739 -6.42268,-0.20421 z m -36.70114,82.02783 c 0.75765,-16.00851 31.79114,-13.91861 29.58749,-25.88431 -14.95041,-1.15583 -35.23917,-8.38086 -34.2132,16.37774 -0.79751,4.48289 -4.24166,16.91217 4.62571,9.50657 z M 508.97714,441.20218 c 3.59168,-10.82164 17.51834,-16.88329 -1.58197,-9.70235 -6.95784,3.63568 -9.78643,18.77942 1.58197,9.70235 z m 65.57029,-2.41698 c 8.65178,-2.51771 12.5209,5.38217 14.15603,-8.40463 19.89881,0.84429 -1.79263,-22.71555 18.92058,-19.74907 -16.22914,-8.40989 8.75248,-17.53022 -11.9391,-20.33605 -9.54041,9.4365 -14.24768,36.393 -28.98795,45.75642 -0.50179,3.47399 6.49826,7.77353 7.85044,2.73333 z m 49.05357,-2.7974 c 11.64494,-8.34862 18.53861,12.11367 22.21302,-8.67771 3.76375,-12.06179 18.17365,-48.91622 -4.83903,-24.81196 -1.40887,4.94737 9.96322,19.04063 -4.84228,22.00376 -14.98033,-4.80898 -10.55283,-23.20542 2.83167,-26.55253 -15.64577,-10.8651 -27.70769,13.77091 -26.61165,23.17561 -15.83658,1.73038 12.73032,-0.20276 10.90188,2.11332 -5.44165,4.42246 -13.99854,22.29802 0.34639,12.74951 z m 147.29462,1.1194 c -7.71854,-12.72462 4.92944,-23.05219 2.39977,-35.0231 12.4533,-9.25105 11.52622,-25.03042 -6.71883,-14.667 -10.03035,10.85901 -41.06675,38.3364 -11.67044,41.81815 15.49757,-7.33643 -13.16856,13.22101 9.1243,9.65159 l 4.93169,-0.4047 z m -88.31613,-17.98486 c 7.19539,-10.1373 -7.79913,-16.22126 -9.50703,-5.35572 -13.96516,-15.84797 -2.23922,18.32233 9.50703,5.35572 z m 122.55685,-6.81444 c 5.25947,-16.96935 12.65507,-39.11787 -14.67108,-32.51718 1.13819,10.0068 6.47485,31.53674 11.83842,36.76507 z m -242.37183,-0.44352 c -0.86403,-4.75393 -9.43697,-2.11964 -5.81743,-8.71879 -19.33126,-0.24054 -6.04095,16.03782 5.81743,8.71879 z m 8.7866,-14.80821 c 9.71291,-23.0241 -24.47086,15.45233 0,0 z m 280.72408,-1.69098 c 7.26998,-8.83076 -27.21579,-19.30449 -9.48928,-22.4658 12.63669,14.73032 6.78995,-28.32589 -6.16922,-8.60582 -6.25164,10.46483 -7.08455,31.28608 -14.98581,29.43819 10.70142,-1.25456 23.88785,8.03287 30.64431,1.63343 z M 626.299,390.36079 c 9.01396,-4.67186 32.60551,-32.47497 16.01289,-7.42843 2.79244,10.89123 29.70594,-6.49424 13.42052,-11.93849 -3.74169,-22.45395 -32.22003,7.90331 -38.11599,18.03249 -11.35682,8.71395 5.2841,5.46881 8.68258,1.33443 z m 253.29226,-3.89835 c -0.49854,-8.72818 21.36921,-27.17555 21.05422,-21.56379 -22.78552,16.26749 30.11181,22.00063 19.43055,-3.45137 0.77763,-15.17714 -12.41854,-12.27322 -17.34972,-11.24003 -11.22365,-12.98819 -1.14318,17.97903 -16.94525,3.18146 -6.84375,-8.59161 -21.24761,-5.49589 -14.67023,-13.81992 -15.04441,0.15211 -11.9385,30.98271 -8.04151,38.90894 10.16461,-5.07021 14.50893,-15.33021 6.55026,-22.0546 22.66661,4.4643 -17.69337,37.28053 9.97168,30.03931 z M 862.754,384.56015 c -7.36915,-14.01846 -30.44102,2.76665 -5.51698,0.93723 l 3.90937,-0.19633 z m -252.37304,-1.10049 c -13.93335,-3.55474 21.52801,-14.15861 2.52193,-10.82772 -10.94103,3.25215 -26.1234,15.42026 -2.52193,10.82772 z m 122.7135,-0.62984 c -6.47478,-15.48389 -24.24445,-7.29874 -4.59749,0.81004 0.61112,0.41631 4.64284,1.43801 4.59749,-0.81004 z m 35.84261,-0.95846 c 2.7789,-0.12036 32.6958,-7.50918 17.80058,-25.90235 -18.12259,5.56024 -31.74838,-6.83669 -47.93117,-12.39821 0.47277,9.60081 22.14886,11.03149 11.63982,16.05371 6.47799,1.86339 25.46345,18.0951 9.29779,8.15799 -2.45854,3.53745 5.803,23.17762 9.19298,14.08886 z m 43.27573,-10.91202 c -9.87126,-13.37786 13.16367,2.97361 2.41456,-12.38722 -2.17781,-15.30226 -31.22768,15.36422 -11.8474,12.56233 3.05636,0.20071 6.48119,1.24171 9.43284,-0.17511 z m -144.52695,-2.53708 c 12.34806,-2.59877 15.81405,-19.52757 0.10956,-8.48895 -5.85375,4.65241 -16.30779,12.76774 -0.10956,8.48895 z m 263.37095,-7.60309 c 0.39719,-22.7963 -11.34446,-2.09399 -1.05784,6.02489 l 0.77605,-1.9388 0.28183,-4.08609 z m -14.10374,-20.64121 c -8.48038,-14.60496 -32.36115,-1.2007 -8.41137,2.29887 2.63789,0.0656 7.11134,0.88324 8.41137,-2.29887 z m -81.87409,303.03842 c 7.15911,-18.97022 16.86013,-38.64315 18.84865,-60.84195 9.58613,-17.86395 6.6467,-42.84173 13.97536,-54.86275 2.58236,-15.62852 -11.33188,6.47092 -9.26816,-9.32414 -9.80565,16.34095 6.89635,-8.28342 -3.70414,-11.35676 -8.78586,-9.26089 -3.89516,-9.72888 4.20956,-2.44836 -4.58239,-16.70688 16.44839,-8.58424 7.71869,-24.57041 -4.43859,-15.44669 28.14876,-37.00325 2.96859,-47.44599 13.71603,-0.72739 12.76003,-1.86388 11.77947,-8.37406 19.25424,1.32442 30.11919,30.27759 21.81912,38.71702 11.81011,-1.20073 -5.7777,16.7359 -2.95857,26.59146 -13.13022,40.85254 -24.73606,82.75732 -46.03207,120.43253 -6.30013,10.08859 -12.38465,27.52185 -19.3565,33.48341 z M 618.22574,557.28579 c -33.79993,-18.3875 19.38681,1.64571 0,0 z m 44.26305,-10.14135 c -4.24484,-20.95799 24.53693,8.90553 0,0 z"
         id="path3463-9" />
    </g>
    <text
       xml:space="preserve"
       style="font-style:normal;font-variant:normal;font-weight:normal;font-stretch:normal;font-size:53.3333px;font-family:'Comic Sans MS';-inkscape-font-specification:'Comic Sans MS';fill:#f2f2f2;fill-opacity:1"
       x="591.3252"
       y="819.44812"
       id="text2577"><tspan
         sodipodi:role="line"
         id="tspan2575"
         x="591.3252"
         y="819.44812"
         style="font-size:53.3333px;fill:#f2f2f2;fill-opacity:1">1.3.6</tspan></text>
    <path
       style="fill:#fdfdfd;fill-opacity:1;stroke-width:2"
       d="m 837.81886,324.89226 c -23.24734,-4.20932 -26.54528,-5.85391 -24.92384,-12.42875 4.33814,-17.59084 4.43824,-17.20808 -4.12314,-15.76628 C 804.49734,297.4171 792,298.55697 781,299.23029 l -20,1.22422 -5.87418,-6.22725 c -8.20294,-8.69598 -21.31534,-8.7596 -36.52253,-0.17718 l -10.72013,6.05006 -8.6173,-5.05007 c -11.25045,-6.5932 -13.74281,-6.39623 -24.67345,1.94993 -5.04219,3.85 -10.89663,7 -13.00986,7 -2.11324,0 -8.18437,-4.45789 -13.49141,-9.90643 -13.26238,-13.61598 -16.82525,-14.13879 -36.35931,-5.33538 C 602.89388,292.74118 594.4585,296 592.98652,296 c -2.52711,0 -5.084,-6.02964 -7.845,-18.5 -1.20419,-5.43885 -1.39519,-5.5 -17.17962,-5.5 -17.15731,0 -18.21288,-0.81436 -12.9619,-10 1.57204,-2.75 2.89015,-7.81687 2.92913,-11.25971 0.0601,-5.30851 -1.67662,-7.58738 -11.42913,-14.99698 l -11.5,-8.73727 10.5,-1.78431 c 8.95985,-1.52258 10.5,-2.43243 10.5,-6.20294 0,-2.43025 -2.7,-8.14588 -6,-12.7014 -3.3,-4.55551 -6,-8.74055 -6,-9.30007 0,-0.55953 7.65,-1.01732 17,-1.01732 16.3571,0 17,-0.17226 17,-4.55499 0,-2.50524 -1.41727,-6.57842 -3.14949,-9.05152 -1.73222,-2.47309 -2.85722,-5.2512 -2.5,-6.17358 0.35722,-0.92238 13.67176,0.88353 29.58786,4.01314 15.91611,3.12961 29.58429,5.03247 30.37374,4.22858 0.78945,-0.8039 1.71718,-5.51163 2.06163,-10.46163 0.56905,-8.17787 1.083,-8.97767 5.62626,-8.7555 2.75,0.13447 9.9277,2.08266 15.95044,4.32929 12.27578,4.57919 17.22081,3.42458 19.20582,-4.48433 0.66192,-2.63729 2.83185,-6.26873 4.82208,-8.06986 3.37761,-3.05669 4.69354,-2.78342 19.75935,4.10335 l 16.14076,7.37813 11.83235,-10.25054 C 734.21858,152.61274 740.74002,148 742.20288,148 c 1.46284,0 6.97014,4.24561 12.23844,9.43469 9.39524,9.25396 9.70306,9.38417 16.0687,6.79734 13.46444,-5.47159 14.10358,-5.26986 19.48998,6.15161 4.9964,10.5945 5.00926,10.60395 17.84248,13.1184 7.06338,1.38394 13.29098,2.96476 13.83916,3.51293 0.54816,0.54816 -1.16784,5.61798 -3.81336,11.26625 l -4.81002,10.26958 4.90544,3.2246 c 2.69798,1.77353 7.18486,5.18754 9.97086,7.5867 l 5.06544,4.3621 -7.76144,7.98996 c -6.5661,6.75943 -7.5502,8.85979 -6.3899,13.6379 2.73142,11.24789 2.34794,13.62 -2.3088,14.28182 C 811.71906,260.31901 804,268.77554 804,273.37177 c 0,3.84984 10.7603,8.0553 27.81878,10.87246 L 846,286.5862 v 13.33272 c 0,12.20338 0.50822,13.81962 6,19.08108 10.23774,9.80839 9.39072,10.16033 -14.18114,5.89226 z"
       id="path4100" />
    <text
       xml:space="preserve"
       style="font-size:37.3333px;fill:#1a1a1a;fill-opacity:1"
       x="635.89673"
       y="255.80272"
       id="text1335"
       transform="rotate(-0.83393816)"><tspan
         sodipodi:role="line"
         id="tspan1333"
         x="635.89673"
         y="255.80272"
         style="font-style:normal;font-variant:normal;font-weight:normal;font-stretch:normal;font-family:'Comic Sans MS';-inkscape-font-specification:'Comic Sans MS'">D'OH!</tspan></text>
  </g>
</svg>
